<svg xmlns="http://www.w3.org/2000/svg"
 viewBox="-1.4595832 -1.4595832 32.11083 53.480583"
>
<polyline
 fill="none" stroke="green" stroke-width="0.25%"
 points="
  0.000000,  0.000000
  0.500000,  0.866025
  0.500000,  0.866025
  1.266044,  1.508813
  1.266044,  1.508813
  1.266044,  1.508813
  1.439693,  2.493621
  1.439693,  2.493621
  1.939693,  3.359646
  1.939693,  3.359646
  2.705737,  4.002434
  2.705737,  4.002434
  3.645430,  4.344454
  3.645430,  4.344454
  3.645430,  4.344454
  4.145430,  5.210479
  4.145430,  5.210479
  4.911474,  5.853267
  4.911474,  5.853267
  4.911474,  5.853267
  5.085123,  6.838075
  5.085123,  6.838075
  5.585123,  7.704100
  5.585123,  7.704100
  5.585123,  7.704100
  5.411474,  8.688908
  5.411474,  8.688908
  5.585123,  9.673716
  5.585123,  9.673716
  6.085123, 10.539742
  6.085123, 10.539742
  6.851167, 11.182529
  6.851167, 11.182529
  6.851167, 11.182529
  7.024816, 12.167337
  7.024816, 12.167337
  7.524816, 13.033363
  7.524816, 13.033363
  8.290860, 13.676151
  8.290860, 13.676151
  9.230553, 14.018171
  9.230553, 14.018171
  9.230553, 14.018171
  9.730553, 14.884197
  9.730553, 14.884197
 10.496597, 15.526985
 10.496597, 15.526985
 11.436290, 15.869005
 11.436290, 15.869005
 12.436290, 15.869005
 12.436290, 15.869005
 12.436290, 15.869005
 13.202334, 16.511793
 13.202334, 16.511793
 14.142027, 16.853813
 14.142027, 16.853813
 14.142027, 16.853813
 14.642027, 17.719840
 14.642027, 17.719840
 15.408072, 18.362627
 15.408072, 18.362627
 15.408072, 18.362627
 15.581719, 19.347435
 15.581719, 19.347435
 16.081718, 20.213460
 16.081718, 20.213460
 16.847763, 20.856249
 16.847763, 20.856249
 17.787457, 21.198269
 17.787457, 21.198269
 17.787457, 21.198269
 18.287457, 22.064295
 18.287457, 22.064295
 19.053501, 22.707083
 19.053501, 22.707083
 19.053501, 22.707083
 19.227150, 23.691890
 19.227150, 23.691890
 19.727150, 24.557917
 19.727150, 24.557917
 19.727150, 24.557917
 19.553501, 25.542725
 19.553501, 25.542725
 19.727150, 26.527533
 19.727150, 26.527533
 20.227150, 27.393559
 20.227150, 27.393559
 20.993195, 28.036346
 20.993195, 28.036346
 20.993195, 28.036346
 21.166843, 29.021154
 21.166843, 29.021154
 21.666843, 29.887180
 21.666843, 29.887180
 21.666843, 29.887180
 21.493195, 30.871988
 21.493195, 30.871988
 21.666843, 31.856796
 21.666843, 31.856796
 21.666843, 31.856796
 21.166843, 32.722820
 21.166843, 32.722820
 20.993195, 33.707626
 20.993195, 33.707626
 21.166843, 34.692432
 21.166843, 34.692432
 21.666843, 35.558456
 21.666843, 35.558456
 21.666843, 35.558456
 21.493195, 36.543262
 21.493195, 36.543262
 21.666843, 37.528070
 21.666843, 37.528070
 22.166843, 38.394093
 22.166843, 38.394093
 22.932888, 39.036880
 22.932888, 39.036880
 22.932888, 39.036880
 23.106537, 40.021687
 23.106537, 40.021687
 23.606537, 40.887710
 23.606537, 40.887710
 24.372581, 41.530500
 24.372581, 41.530500
 25.312275, 41.872520
 25.312275, 41.872520
 25.312275, 41.872520
 25.812275, 42.738544
 25.812275, 42.738544
 26.578320, 43.381332
 26.578320, 43.381332
 26.578320, 43.381332
 26.751968, 44.366140
 26.751968, 44.366140
 27.251968, 45.232162
 27.251968, 45.232162
 27.251968, 45.232162
 27.078320, 46.216970
 27.078320, 46.216970
 27.251968, 47.201775
 27.251968, 47.201775
 27.751968, 48.067800
 27.751968, 48.067800
 28.518013, 48.710587
 28.518013, 48.710587
 28.518013, 48.710587
 28.691662, 49.695393
 28.691662, 49.695393
 29.191662, 50.561417
 "
/>
</svg>
