<svg xmlns="http://www.w3.org/2000/svg"
 viewBox="-11.15 -16.15 25.3 25.29998"
>
<polyline
 fill="none" stroke="green" stroke-width="0.25%"
 points="
  0.000000,  0.000000
  0.000000,  0.000000
  0.000000,  0.000000
  0.000000,  0.000000
  0.000000,  0.000000
 -1.000000, -0.000000
 -2.000000, -0.000000
 -2.000000, -0.000000
 -2.000000, -1.000000
 -2.000000, -2.000000
 -2.000000, -3.000000
 -2.000000, -3.000000
 -1.000000, -3.000000
  0.000000, -3.000000
  0.000000, -3.000000
  0.000000, -4.000000
  0.000000, -4.000000
  0.000000, -4.000000
  0.000000, -5.000000
  0.000000, -6.000000
  0.000000, -6.000000
 -1.000000, -6.000000
 -2.000000, -6.000000
 -3.000000, -6.000000
 -3.000000, -6.000000
 -3.000000, -5.000000
 -3.000000, -4.000000
 -3.000000, -3.000000
 -3.000000, -3.000000
 -4.000000, -3.000000
 -5.000000, -3.000000
 -5.000000, -3.000000
 -5.000000, -2.000000
 -5.000000, -1.000000
 -5.000000,  0.000000
 -5.000000,  0.000000
 -4.000000,  0.000000
 -3.000000,  0.000000
 -3.000000,  0.000000
 -3.000000, -1.000000
 -3.000000, -1.000000
 -4.000000, -0.999999
 -5.000000, -0.999999
 -5.000000, -0.999999
 -5.000000, -1.999999
 -5.000000, -3.000000
 -5.000000, -4.000000
 -5.000000, -4.000000
 -4.000000, -4.000000
 -3.000000, -4.000000
 -3.000000, -4.000000
 -3.000000, -5.000000
 -3.000000, -5.000000
 -3.000000, -5.000000
 -3.000000, -5.000000
 -2.000000, -5.000000
 -1.000000, -5.000000
 -1.000000, -5.000000
 -1.000000, -6.000000
 -1.000000, -7.000000
 -1.000000, -8.000000
 -1.000000, -8.000000
 -2.000000, -8.000000
 -3.000000, -8.000000
 -4.000000, -8.000000
 -4.000000, -8.000000
 -4.000000, -8.000000
 -5.000000, -8.000000
 -6.000000, -8.000000
 -6.000000, -8.000000
 -6.000000, -9.000000
 -6.000000,-10.000000
 -6.000000,-11.000000
 -6.000000,-11.000000
 -5.000000,-11.000000
 -4.000000,-11.000000
 -4.000000,-11.000000
 -4.000000,-12.000000
 -4.000000,-12.000000
 -5.000000,-12.000000
 -6.000000,-12.000000
 -6.000000,-12.000000
 -6.000000,-13.000000
 -6.000000,-14.000000
 -6.000000,-15.000000
 -6.000000,-15.000000
 -5.000000,-15.000000
 -4.000000,-15.000000
 -4.000000,-15.000000
 -4.000000,-15.000000
 -3.000000,-15.000000
 -3.000000,-15.000000
 -3.000000,-14.000000
 -3.000000,-13.000000
 -3.000000,-13.000000
 -2.000000,-13.000000
 -1.000000,-13.000000
  0.000000,-13.000000
  0.000000,-13.000000
 -0.000000,-14.000000
 -0.000000,-15.000000
 -0.000000,-15.000000
 -1.000000,-15.000000
 -1.000000,-15.000000
 -1.000000,-15.000000
 -2.000000,-15.000000
 -3.000000,-15.000000
 -3.000000,-15.000000
 -3.000000,-14.000000
 -3.000000,-13.000000
 -3.000000,-12.000000
 -3.000000,-12.000000
 -2.000000,-12.000000
 -1.000000,-12.000000
  0.000000,-12.000000
  0.000000,-12.000000
  0.000000,-12.000000
  1.000000,-12.000000
  2.000000,-12.000000
  2.000000,-12.000000
  2.000000,-11.000000
  2.000000,-10.000000
  2.000000, -9.000000
  2.000000, -9.000000
  1.000000, -9.000000
  0.000000, -9.000000
  0.000000, -9.000000
  0.000000, -8.000000
  0.000000, -8.000000
  1.000000, -8.000000
  2.000000, -8.000000
  2.000000, -8.000000
  2.000000, -7.000000
  2.000000, -6.000000
  2.000000, -5.000000
  2.000000, -5.000000
  1.000000, -5.000000
  0.000000, -5.000000
  0.000000, -5.000000
  0.000000, -5.000000
 -1.000000, -5.000000
 -1.000000, -5.000000
 -1.000000, -6.000000
 -1.000000, -7.000000
 -1.000000, -7.000000
 -2.000000, -7.000000
 -3.000000, -7.000000
 -4.000000, -7.000000
 -4.000000, -7.000000
 -4.000000, -6.000000
 -4.000000, -5.000000
 -4.000000, -5.000000
 -4.000000, -5.000000
 -4.000000, -4.000000
 -4.000000, -4.000000
 -4.000000, -4.000000
 -4.000000, -3.000000
 -4.000000, -2.000000
 -4.000000, -2.000000
 -5.000000, -2.000000
 -6.000000, -2.000000
 -7.000000, -2.000000
 -7.000000, -2.000000
 -7.000000, -3.000000
 -7.000000, -4.000000
 -7.000000, -4.000000
 -8.000000, -4.000000
 -8.000000, -4.000000
 -8.000000, -4.000000
 -9.000000, -4.000000
-10.000000, -4.000000
-10.000000, -4.000000
-10.000000, -3.000000
-10.000000, -2.000000
-10.000000, -1.000000
-10.000000, -1.000000
 -9.000000, -1.000000
 -8.000000, -1.000000
 -7.000000, -1.000000
 -7.000000, -1.000000
 -7.000000,  0.000000
 -7.000000,  1.000000
 -7.000000,  1.000000
 -6.000000,  1.000000
 -5.000000,  1.000000
 -4.000000,  0.999999
 -4.000000,  0.999999
 -4.000000, -0.000001
 -4.000000, -1.000000
 -4.000000, -1.000000
 -5.000000, -1.000000
 -5.000000, -1.000000
 -5.000000, -0.000000
 -5.000000,  1.000000
 -5.000000,  1.000000
 -6.000000,  1.000000
 -7.000000,  1.000000
 -8.000000,  1.000000
 -8.000000,  1.000000
 -8.000000, -0.000000
 -8.000000, -1.000000
 -8.000000, -1.000000
 -8.000000, -1.000000
 -8.000000, -0.000000
 -8.000000, -0.000000
 -8.000000, -0.000000
 -8.000000, -0.000000
 -8.000000, -0.000000
 -8.000000,  1.000000
 -8.000000,  2.000000
 -8.000000,  2.000000
 -7.000000,  1.999999
 -6.000000,  1.999999
 -5.000000,  1.999998
 -5.000000,  1.999998
 -5.000000,  0.999998
 -5.000000, -0.000002
 -5.000000, -1.000002
 -5.000000, -1.000002
 -5.000000, -1.000002
 -5.000000, -2.000001
 -5.000000, -3.000001
 -5.000000, -3.000001
 -4.000000, -3.000002
 -3.000000, -3.000002
 -2.000000, -3.000002
 -2.000000, -3.000002
 -2.000000, -2.000002
 -2.000000, -1.000002
 -2.000000, -1.000002
 -1.000000, -1.000002
 -1.000000, -1.000002
 -1.000000, -2.000002
 -1.000000, -3.000002
 -1.000000, -3.000002
 -0.000000, -3.000003
  1.000000, -3.000003
  2.000000, -3.000003
  2.000000, -3.000003
  1.999999, -2.000003
  1.999999, -1.000003
  1.999999, -1.000003
  1.999999, -1.000003
  1.999999, -0.000003
  1.999999, -0.000003
  0.999999, -0.000003
 -0.000001, -0.000003
 -0.000001, -0.000003
 -0.000001,  0.999997
 -0.000002,  1.999997
 -0.000002,  2.999997
 -0.000002,  2.999997
  0.999998,  2.999997
  1.999998,  2.999996
  1.999998,  2.999996
  1.999998,  1.999996
  1.999998,  1.999996
  1.999998,  1.999996
  1.999998,  1.999996
  0.999998,  1.999996
 -0.000002,  1.999996
 -0.000002,  1.999996
 -0.000002,  0.999996
 -0.000002, -0.000004
 -0.000002, -1.000004
 -0.000002, -1.000004
  0.999998, -1.000004
  1.999998, -1.000005
  1.999998, -1.000005
  1.999998, -2.000005
  1.999998, -2.000005
  1.999998, -2.000005
  1.999998, -3.000005
  1.999998, -4.000005
  1.999998, -4.000005
  0.999998, -4.000005
 -0.000002, -4.000006
 -1.000002, -4.000006
 -1.000002, -4.000006
 -1.000003, -3.000006
 -1.000004, -2.000006
 -1.000004, -1.000006
 -1.000004, -1.000006
 -2.000004, -1.000006
 -3.000004, -1.000007
 -3.000004, -1.000007
 -3.000004, -0.000007
 -3.000005,  0.999993
 -3.000006,  1.999993
 -3.000006,  1.999993
 -2.000006,  1.999993
 -1.000006,  1.999993
 -1.000006,  1.999993
 -1.000006,  0.999993
 -1.000006,  0.999993
 -2.000006,  0.999993
 -3.000006,  0.999992
 -3.000006,  0.999992
 -3.000007, -0.000008
 -3.000008, -1.000008
 -3.000008, -2.000008
 -3.000008, -2.000008
 -2.000008, -2.000008
 -1.000008, -2.000008
 -1.000008, -2.000008
 -1.000009, -3.000008
 -1.000009, -3.000008
 -1.000009, -3.000008
 -1.000010, -4.000008
 -1.000010, -5.000008
 -1.000010, -5.000008
 -0.000010, -5.000008
  0.999990, -5.000008
  1.999990, -5.000008
  1.999990, -5.000008
  1.999989, -4.000008
  1.999988, -3.000008
  1.999988, -3.000008
  2.999988, -3.000008
  2.999988, -3.000008
  2.999988, -3.000008
  3.999988, -3.000008
  4.999989, -3.000008
  4.999989, -3.000008
  4.999988, -4.000008
  4.999988, -5.000008
  4.999987, -6.000008
  4.999987, -6.000008
  3.999987, -6.000008
  2.999987, -6.000009
  1.999987, -6.000009
  1.999987, -6.000009
  1.999986, -7.000009
  1.999986, -8.000010
  1.999986, -8.000010
  0.999986, -8.000010
 -0.000014, -8.000011
 -1.000014, -8.000012
 -1.000014, -8.000012
 -1.000014, -7.000012
 -1.000014, -6.000012
 -1.000014, -6.000012
 -0.000014, -6.000013
 -0.000014, -6.000013
 -0.000013, -7.000013
 -0.000013, -8.000013
 -0.000013, -8.000013
  0.999987, -8.000014
  1.999987, -8.000015
  2.999987, -8.000016
  2.999987, -8.000016
  2.999987, -7.000016
  2.999987, -6.000016
  2.999987, -6.000016
  2.999987, -6.000016
  2.999988, -7.000016
  2.999988, -7.000016
  2.999988, -7.000016
  2.999988, -8.000016
  2.999989, -9.000016
  2.999989, -9.000016
  1.999989, -9.000016
  0.999989, -9.000016
 -0.000011, -9.000016
 -0.000011, -9.000016
 -0.000011, -8.000016
 -0.000010, -7.000016
 -0.000009, -6.000016
 -0.000009, -6.000016
 -0.000009, -6.000016
 -0.000009, -5.000016
 -0.000008, -4.000016
 -0.000008, -4.000016
 -1.000008, -4.000016
 -2.000008, -4.000016
 -3.000008, -4.000016
 -3.000008, -4.000016
 -3.000007, -5.000016
 -3.000007, -6.000016
 -3.000007, -6.000016
 -4.000007, -6.000016
 -4.000007, -6.000016
 -4.000006, -5.000016
 -4.000006, -4.000016
 -4.000006, -4.000016
 -5.000006, -4.000016
 -6.000006, -4.000016
 -7.000006, -4.000016
 -7.000006, -4.000016
 -7.000005, -5.000016
 -7.000005, -6.000016
 -7.000005, -6.000016
 -7.000005, -6.000016
 -7.000004, -7.000016
 -7.000004, -7.000016
 -6.000004, -7.000017
 -5.000004, -7.000017
 -5.000004, -7.000017
 -5.000004, -8.000017
 -5.000003, -9.000017
 -5.000003,-10.000017
 -5.000003,-10.000017
 -6.000003,-10.000017
 -7.000003,-10.000017
 -7.000003,-10.000017
 -7.000002, -9.000017
 -7.000002, -9.000017
 -7.000002, -9.000017
 -7.000002, -9.000017
 -8.000002, -9.000017
 -9.000002, -9.000017
 -9.000002, -9.000017
 -9.000001, -8.000017
 -9.000000, -7.000017
 -8.999999, -6.000017
 -8.999999, -6.000017
 -7.999999, -6.000017
 -6.999999, -6.000016
 -5.999999, -6.000016
 -5.999999, -6.000016
 -5.999999, -6.000016
 -4.999999, -6.000015
 -3.999999, -6.000015
 -3.999999, -6.000015
 -3.999998, -5.000015
 -3.999998, -4.000015
 -3.999997, -3.000015
 -3.999997, -3.000015
 -4.999997, -3.000015
 -5.999997, -3.000015
 -5.999997, -3.000015
 -5.999997, -2.000015
 -5.999997, -2.000015
 -4.999997, -2.000014
 -3.999997, -2.000014
 -3.999997, -2.000014
 -3.999996, -1.000014
 -3.999995, -0.000014
 -3.999994,  0.999986
 -3.999994,  0.999986
 -4.999994,  0.999986
 -5.999994,  0.999986
 -5.999994,  0.999986
 -5.999994,  0.999986
 -6.999994,  0.999986
 -6.999994,  0.999986
 -6.999994, -0.000014
 -6.999993, -1.000014
 -6.999993, -1.000014
 -7.999993, -1.000014
 -8.999993, -1.000013
 -9.999993, -1.000013
 -9.999993, -1.000013
 -9.999992, -0.000013
 -9.999991,  0.999987
 -9.999991,  0.999987
 -8.999991,  0.999987
 -8.999991,  0.999987
 -8.999991,  0.999987
 -8.999991,  0.999987
 -8.999990, -0.000013
 -8.999988, -1.000013
 -8.999988, -1.000013
 -7.999988, -1.000012
 -6.999988, -1.000011
 -5.999988, -1.000011
 -5.999988, -1.000011
 -5.999987, -0.000011
 -5.999987,  0.999989
 -5.999987,  0.999989
 -4.999987,  0.999990
 -4.999987,  0.999990
 -4.999987,  0.999990
 -3.999987,  0.999990
 -2.999987,  0.999991
 -2.999987,  0.999991
 -2.999985, -0.000009
 -2.999983, -1.000009
 -2.999981, -2.000009
 -2.999981, -2.000009
 -3.999981, -2.000010
 -4.999981, -2.000012
 -5.999981, -2.000013
 -5.999981, -2.000013
 -5.999979, -3.000013
 -5.999977, -4.000013
 -5.999977, -4.000013
 -6.999977, -4.000014
 -7.999977, -4.000015
 -8.999977, -4.000016
 -8.999977, -4.000016
 -8.999978, -3.000016
 -8.999979, -2.000016
 -8.999979, -2.000016
 -7.999979, -2.000016
 -7.999979, -2.000016
 -7.999980, -3.000016
 -7.999981, -4.000016
 -7.999981, -4.000016
 -6.999981, -4.000016
 -5.999981, -4.000016
 -4.999981, -4.000016
 -4.999981, -4.000016
 -4.999981, -3.000016
 -4.999982, -2.000016
 -4.999982, -2.000016
 -3.999982, -2.000016
 -3.999982, -2.000016
 -3.999982, -2.000016
 -2.999982, -2.000016
 -1.999982, -2.000016
 -1.999982, -2.000016
 -1.999982, -1.000016
 -1.999983, -0.000016
 -1.999984,  0.999984
 -1.999984,  0.999984
 -2.999984,  0.999983
 -3.999984,  0.999982
 -3.999984,  0.999982
 -3.999984,  1.999982
 -3.999984,  1.999982
 -3.999984,  1.999982
 -3.999985,  2.999982
 -3.999985,  3.999982
 -3.999985,  3.999982
 -2.999985,  3.999982
 -1.999985,  3.999982
 -0.999985,  3.999982
 -0.999985,  3.999982
 -0.999986,  2.999982
 -0.999987,  1.999982
 -0.999987,  0.999982
 -0.999987,  0.999982
  0.000013,  0.999982
  1.000013,  0.999982
  1.000013,  0.999982
  1.000012, -0.000018
  1.000011, -1.000018
  1.000010, -2.000018
  1.000010, -2.000018
  0.000010, -2.000017
 -0.999990, -2.000016
 -0.999990, -2.000016
 -0.999991, -1.000016
 -0.999991, -1.000016
  0.000009, -1.000014
  1.000009, -1.000013
  1.000009, -1.000013
  1.000007, -0.000013
  1.000005,  0.999987
  1.000003,  1.999987
  1.000003,  1.999987
  0.000003,  1.999988
 -0.999997,  1.999990
 -0.999997,  1.999990
 -0.999997,  1.999990
  0.000003,  1.999991
  0.000003,  1.999991
  0.000003,  1.999991
  1.000003,  1.999992
  2.000003,  1.999993
  2.000003,  1.999993
  2.000004,  0.999993
  2.000004, -0.000007
  2.000005, -1.000007
  2.000005, -1.000007
  1.000005, -1.000007
  0.000005, -1.000006
 -0.999995, -1.000006
 -0.999995, -1.000006
 -0.999995, -1.000006
 -1.999995, -1.000006
 -2.999995, -1.000006
 -2.999995, -1.000006
 -2.999995, -2.000006
 -2.999994, -3.000006
 -2.999994, -4.000006
 -2.999994, -4.000006
 -1.999994, -4.000005
 -0.999994, -4.000004
 -0.999994, -4.000004
 -0.999993, -5.000004
 -0.999993, -5.000004
 -1.999993, -5.000004
 -2.999993, -5.000004
 -2.999993, -5.000004
 -2.999993, -6.000004
 -2.999992, -7.000004
 -2.999992, -8.000004
 -2.999992, -8.000004
 -1.999992, -8.000003
 -0.999992, -8.000002
 -0.999992, -8.000002
 -0.999992, -8.000002
  0.000008, -8.000001
  0.000008, -8.000001
  0.000006, -7.000001
  0.000005, -6.000001
  0.000005, -6.000001
  1.000004, -6.000000
  2.000004, -5.999999
  3.000004, -5.999998
  3.000004, -5.999998
  3.000005, -6.999998
  3.000006, -7.999998
  3.000006, -7.999998
  3.000006, -7.999998
  3.000006, -6.999998
  3.000006, -6.999998
  3.000006, -6.999998
  3.000006, -6.999998
  4.000006, -7.000000
  5.000006, -7.000001
  5.000006, -7.000001
  5.000007, -6.000001
  5.000008, -5.000001
  5.000009, -4.000001
  5.000009, -4.000001
  4.000009, -4.000001
  3.000009, -4.000001
  3.000009, -4.000001
  3.000010, -3.000001
  3.000010, -3.000001
  3.000010, -3.000001
  3.000010, -2.000001
  3.000011, -1.000001
  3.000011, -1.000001
  4.000011, -1.000002
  5.000011, -1.000004
  6.000011, -1.000005
  6.000011, -1.000005
  6.000013, -2.000005
  6.000015, -3.000005
  6.000017, -4.000005
  6.000017, -4.000005
  7.000017, -4.000007
  8.000017, -4.000008
  8.000017, -4.000008
  8.000019, -5.000008
  8.000021, -6.000008
  8.000023, -7.000008
  8.000023, -7.000008
  7.000023, -7.000009
  6.000023, -7.000010
  6.000023, -7.000010
  6.000022, -6.000010
  6.000022, -6.000010
  7.000022, -6.000010
  8.000023, -6.000010
  8.000023, -6.000010
  8.000022, -5.000010
  8.000021, -4.000010
  8.000020, -3.000010
  8.000020, -3.000010
  7.000020, -3.000011
  6.000020, -3.000012
  6.000020, -3.000012
  6.000020, -2.000012
  6.000020, -2.000012
  6.000020, -2.000012
  6.000020, -2.000012
  5.000020, -2.000014
  4.000020, -2.000015
  4.000020, -2.000015
  4.000019, -1.000015
  4.000019, -0.000015
  4.000018,  0.999985
  4.000018,  0.999985
  5.000018,  0.999985
  6.000018,  0.999985
  7.000018,  0.999985
  7.000018,  0.999985
  7.000018,  0.999985
  8.000018,  0.999985
  9.000018,  0.999985
  9.000018,  0.999985
  9.000017,  1.999985
  9.000016,  2.999985
  9.000015,  3.999985
  9.000015,  3.999985
  8.000015,  3.999984
  7.000015,  3.999982
  7.000015,  3.999982
  7.000015,  4.999982
  7.000015,  4.999982
  8.000015,  4.999982
  9.000015,  4.999982
  9.000015,  4.999982
  9.000014,  5.999982
  9.000013,  6.999982
  9.000012,  7.999982
  9.000012,  7.999982
  8.000012,  7.999981
  7.000012,  7.999980
  7.000012,  7.999980
  7.000012,  7.999980
  6.000012,  7.999980
  6.000012,  7.999980
  6.000014,  6.999980
  6.000016,  5.999980
  6.000016,  5.999980
  5.000016,  5.999978
  4.000016,  5.999978
  3.000016,  5.999977
  3.000016,  5.999977
  3.000016,  6.999977
  3.000015,  7.999977
  3.000015,  7.999977
  4.000015,  7.999977
  4.000015,  7.999977
  4.000015,  7.999977
  5.000015,  7.999977
  6.000015,  7.999977
  6.000015,  7.999977
  6.000014,  6.999977
  6.000013,  5.999977
  6.000012,  4.999977
  6.000012,  4.999977
  5.000012,  4.999978
  4.000012,  4.999980
  3.000012,  4.999981
  3.000012,  4.999981
  3.000012,  4.999981
  2.000012,  4.999982
  1.000012,  4.999984
  1.000012,  4.999984
  1.000012,  3.999984
  1.000011,  2.999984
  1.000010,  1.999984
  1.000010,  1.999984
  2.000010,  1.999984
  3.000010,  1.999984
  3.000010,  1.999984
  3.000009,  0.999984
  3.000009,  0.999984
  2.000009,  0.999985
  1.000009,  0.999986
  1.000009,  0.999986
  1.000008, -0.000014
  1.000008, -1.000014
  1.000007, -2.000014
  1.000007, -2.000014
  2.000007, -2.000014
  3.000007, -2.000014
  3.000007, -2.000014
  3.000007, -2.000014
  4.000007, -2.000014
  4.000007, -2.000014
  4.000006, -1.000014
  4.000006, -0.000014
  4.000006, -0.000014
  5.000006, -0.000014
  6.000006, -0.000015
  7.000006, -0.000015
  7.000006, -0.000015
  7.000005, -1.000015
  7.000004, -2.000015
  7.000004, -2.000015
  7.000004, -2.000015
  7.000003, -3.000015
  7.000003, -3.000015
  7.000003, -3.000015
  7.000002, -4.000015
  7.000001, -5.000015
  7.000001, -5.000015
  8.000001, -5.000015
  9.000001, -5.000015
 10.000001, -5.000015
 10.000001, -5.000015
 10.000000, -4.000015
  9.999999, -3.000015
  9.999999, -3.000015
 10.999999, -3.000015
 10.999999, -3.000015
 10.999999, -3.000015
 11.999999, -3.000015
 12.999999, -3.000016
 12.999999, -3.000016
 12.999998, -4.000015
 12.999997, -5.000015
 12.999996, -6.000015
 12.999996, -6.000015
 11.999996, -6.000014
 10.999996, -6.000012
  9.999996, -6.000011
  9.999996, -6.000011
  9.999995, -7.000011
  9.999994, -8.000011
  9.999994, -8.000011
  8.999994, -8.000010
  7.999994, -8.000010
  6.999994, -8.000009
  6.999994, -8.000009
  6.999992, -7.000009
  6.999990, -6.000009
  6.999990, -6.000009
  7.999990, -6.000008
  7.999990, -6.000008
  7.999991, -7.000008
  7.999991, -8.000008
  7.999991, -8.000008
  8.999991, -8.000007
  9.999991, -8.000006
 10.999991, -8.000005
 10.999991, -8.000005
 10.999990, -7.000005
 10.999988, -6.000005
 10.999988, -6.000005
 10.999988, -6.000005
 "
/>
</svg>
