<svg xmlns="http://www.w3.org/2000/svg"
 viewBox="-4.7729716 -9.015608 11.667261 13.788613"
>
<polyline
 fill="none" stroke="green" stroke-width="0.25%"
 points="
  0.000000,  0.000000
 -0.707107,  0.707107
 -0.707107,  0.707107
 -1.414214,  0.000000
 -1.414214,  0.000000
 -1.414214,  0.000000
 -0.707107,  0.707107
 -0.707107,  0.707107
 -0.000000, -0.000000
 -0.000000, -0.000000
 -0.000000, -0.000000
 -0.707107,  0.707107
 -1.414214,  1.414213
 -1.414214,  1.414213
 -0.707107,  2.121320
 -0.707107,  2.121320
 -0.707107,  2.121320
 -0.000000,  2.828427
 -0.000000,  2.828427
 -0.707107,  3.535534
 -1.414214,  4.242640
 -1.414214,  4.242640
 -1.414214,  4.242640
 -0.707107,  3.535534
 -0.707107,  3.535534
 -0.000000,  4.242640
 -0.000000,  4.242640
 -0.000000,  4.242640
 -0.707107,  3.535534
 -0.707107,  3.535534
 -1.414214,  4.242640
 -1.414214,  4.242640
 -1.414214,  4.242640
 -1.414214,  4.242640
 -2.121321,  3.535534
 -2.121321,  3.535534
 -1.414214,  2.828427
 -0.707108,  2.121320
 -0.707108,  2.121320
 -0.707108,  2.121320
 -1.414214,  2.828427
 -1.414214,  2.828427
 -2.121321,  2.121320
 -2.121321,  2.121320
 -2.121321,  2.121320
 -1.414214,  2.828427
 -1.414214,  2.828427
 -0.707107,  2.121320
 -0.707107,  2.121320
 -1.414214,  1.414214
 -1.414214,  1.414214
 -0.707108,  0.707107
 -0.707108,  0.707107
 -0.707108,  0.707107
 -1.414214,  1.414214
 -1.414214,  1.414214
 -0.707107,  2.121320
 -0.707107,  2.121320
 -0.707107,  2.121320
 -1.414214,  1.414214
 -2.121321,  0.707107
 -2.121321,  0.707107
 -2.828428,  1.414214
 -2.828428,  1.414214
 -2.828428,  1.414214
 -2.121321,  0.707107
 -2.121321,  0.707107
 -1.414214,  1.414214
 -1.414214,  1.414214
 -1.414214,  1.414214
 -2.121321,  0.707107
 -2.121321,  0.707107
 -2.828428,  1.414214
 -2.828428,  1.414214
 -2.828428,  1.414214
 -2.121321,  0.707107
 -1.414214,  0.000000
 -1.414214,  0.000000
 -2.121321, -0.707106
 -2.828428, -1.414213
 -2.828428, -1.414213
 -2.121321, -2.121320
 -2.121321, -2.121320
 -2.121321, -2.121320
 -2.828428, -1.414213
 -2.828428, -1.414213
 -2.121321, -0.707106
 -2.121321, -0.707106
 -2.121321, -0.707106
 -2.828428, -1.414213
 -3.535535, -2.121320
 -3.535535, -2.121320
 -4.242641, -1.414213
 -4.242641, -1.414213
 -4.242641, -1.414213
 -3.535535, -2.121320
 -3.535535, -2.121320
 -2.828428, -1.414213
 -2.121321, -0.707106
 -2.121321, -0.707106
 -2.121321, -0.707106
 -2.828428, -1.414213
 -2.828428, -1.414213
 -2.121321, -2.121320
 -2.121321, -2.121320
 -2.121321, -2.121320
 -2.828428, -1.414213
 -2.828428, -1.414213
 -2.121322, -0.707106
 -2.121322, -0.707106
 -2.121322, -0.707106
 -1.414215,  0.000001
 -1.414215,  0.000001
 -2.121322,  0.707107
 -2.121322,  0.707107
 -2.121322,  0.707107
 -1.414215,  0.000001
 -1.414215,  0.000001
 -2.121322, -0.707106
 -2.121322, -0.707106
 -2.121322, -0.707106
 -1.414215,  0.000001
 -0.707109,  0.707108
 -0.707109,  0.707108
 -0.000002,  0.000001
 -0.000002,  0.000001
 -0.000002,  0.000001
  0.707105, -0.707106
  0.707105, -0.707106
  1.414212,  0.000001
  2.121318,  0.707108
  2.121318,  0.707108
  2.121318,  0.707108
  1.414211,  0.000001
  1.414211,  0.000001
  2.121318, -0.707106
  2.121318, -0.707106
  2.121318, -0.707106
  1.414211,  0.000001
  1.414211,  0.000001
  2.121318,  0.707108
  2.121318,  0.707108
  2.828425,  0.000001
  2.828425,  0.000001
  3.535531,  0.707108
  4.242638,  1.414215
  4.242638,  1.414215
  4.242638,  1.414215
  3.535531,  0.707108
  3.535531,  0.707108
  4.242638,  0.000001
  4.242638,  0.000001
  4.242638,  0.000001
  3.535531,  0.707108
  3.535531,  0.707108
  4.242638,  1.414215
  4.242638,  1.414215
  4.242638,  1.414215
  4.242638,  1.414215
  3.535531,  2.121322
  3.535531,  2.121322
  2.828424,  1.414215
  2.121318,  0.707108
  2.121318,  0.707108
  2.121318,  0.707108
  2.828424,  1.414215
  2.828424,  1.414215
  2.121318,  2.121322
  2.121318,  2.121322
  2.121318,  2.121322
  2.828424,  1.414215
  2.828424,  1.414215
  2.121318,  0.707108
  2.121318,  0.707108
  2.828424,  0.000001
  2.828424,  0.000001
  3.535531,  0.707108
  3.535531,  0.707108
  3.535531,  0.707108
  2.828424,  0.000001
  2.828424,  0.000001
  2.121318,  0.707108
  2.121318,  0.707108
  2.121318,  0.707108
  2.828424,  0.000001
  3.535531, -0.707105
  3.535531, -0.707105
  2.828424, -1.414212
  2.828424, -1.414212
  2.828424, -1.414212
  3.535531, -0.707105
  3.535531, -0.707105
  2.828424,  0.000001
  2.828424,  0.000001
  2.828424,  0.000001
  3.535531, -0.707105
  3.535531, -0.707105
  2.828424, -1.414212
  2.828424, -1.414212
  2.828424, -1.414212
  3.535531, -0.707105
  4.242638,  0.000002
  4.242638,  0.000002
  4.949744, -0.707105
  4.949744, -0.707105
  4.949744, -0.707105
  4.242638,  0.000002
  4.242638,  0.000002
  3.535531, -0.707105
  2.828424, -1.414212
  2.828424, -1.414212
  2.828424, -1.414212
  3.535531, -0.707105
  3.535531, -0.707105
  2.828424,  0.000001
  2.828424,  0.000001
  2.828424,  0.000001
  3.535531, -0.707105
  3.535531, -0.707105
  2.828424, -1.414212
  2.828424, -1.414212
  2.828424, -1.414212
  2.828424, -1.414212
  3.535531, -2.121319
  3.535531, -2.121319
  4.242638, -1.414212
  4.242638, -1.414212
  4.242638, -1.414212
  3.535531, -2.121319
  3.535531, -2.121319
  2.828424, -1.414213
  2.828424, -1.414213
  2.828424, -1.414213
  3.535531, -2.121319
  4.242638, -2.828426
  4.242638, -2.828426
  3.535532, -3.535533
  3.535532, -3.535533
  3.535532, -3.535533
  2.828425, -4.242640
  2.828425, -4.242640
  3.535532, -4.949747
  4.242639, -5.656853
  4.242639, -5.656853
  4.242639, -5.656853
  3.535532, -4.949747
  3.535532, -4.949747
  2.828425, -5.656853
  2.828425, -5.656853
  2.828425, -5.656853
  3.535532, -4.949746
  3.535532, -4.949746
  4.242638, -5.656853
  4.242638, -5.656853
  3.535532, -6.363960
  3.535532, -6.363960
  4.242638, -7.071066
  4.949745, -7.778173
  4.949745, -7.778173
  4.949745, -7.778173
  4.242638, -7.071066
  4.242638, -7.071066
  3.535531, -7.778173
  3.535531, -7.778173
  3.535531, -7.778173
  4.242638, -7.071066
  4.242638, -7.071066
  4.949744, -7.778172
  4.949744, -7.778172
  4.949744, -7.778172
  4.949744, -7.778172
  5.656851, -7.071065
  5.656851, -7.071065
  4.949744, -6.363959
  4.242638, -5.656852
  4.242638, -5.656852
  4.242638, -5.656852
  4.949744, -6.363959
  4.949744, -6.363959
  5.656851, -5.656852
  5.656851, -5.656852
  5.656851, -5.656852
  4.949744, -6.363959
  4.949744, -6.363959
  4.242638, -5.656852
  4.242638, -5.656852
  3.535531, -6.363959
  3.535531, -6.363959
  4.242638, -7.071065
  4.242638, -7.071065
  4.242638, -7.071065
  3.535531, -6.363959
  3.535531, -6.363959
  4.242638, -5.656852
  4.242638, -5.656852
  4.242638, -5.656852
  3.535531, -6.363959
  2.828424, -7.071065
  2.828424, -7.071065
  2.121317, -6.363959
  2.121317, -6.363959
  2.121317, -6.363959
  2.828424, -7.071065
  2.828424, -7.071065
  3.535531, -6.363958
  3.535531, -6.363958
  3.535531, -6.363958
  2.828424, -7.071065
  2.828424, -7.071065
  2.121317, -6.363958
  2.121317, -6.363958
  2.121317, -6.363958
  2.828424, -7.071065
  3.535531, -7.778172
  3.535531, -7.778172
  2.828424, -8.485278
  2.828424, -8.485278
  2.828424, -8.485278
  3.535531, -7.778172
  3.535531, -7.778172
  2.828424, -7.071064
  2.121318, -6.363957
  2.121318, -6.363957
  2.121318, -6.363957
  2.828424, -7.071064
  2.828424, -7.071064
  3.535531, -6.363957
  3.535531, -6.363957
  3.535531, -6.363957
  2.828424, -7.071064
  2.828424, -7.071064
  2.121318, -6.363957
  2.121318, -6.363957
  2.828425, -5.656850
  2.828425, -5.656850
  2.121318, -4.949743
  2.121318, -4.949743
  2.121318, -4.949743
  2.828425, -5.656850
  2.828425, -5.656850
  2.121318, -6.363957
  2.121318, -6.363957
  2.121318, -6.363957
  2.828425, -5.656850
  3.535532, -4.949744
  3.535532, -4.949744
  4.242639, -5.656850
  4.242639, -5.656850
  4.242639, -5.656850
  4.949746, -6.363957
  4.949746, -6.363957
  5.656853, -5.656850
  6.363959, -4.949744
  6.363959, -4.949744
  6.363959, -4.949744
  5.656853, -5.656851
  5.656853, -5.656851
  6.363959, -6.363957
  6.363959, -6.363957
  6.363959, -6.363957
  5.656853, -5.656850
  5.656853, -5.656850
  6.363959, -4.949744
  6.363959, -4.949744
  6.363959, -4.949744
  6.363959, -4.949744
  5.656853, -4.242637
  5.656853, -4.242637
  4.949746, -4.949744
  4.242640, -5.656851
  4.242640, -5.656851
  4.242640, -5.656851
  4.949746, -4.949744
  4.949746, -4.949744
  4.242640, -4.242637
  4.242640, -4.242637
  4.242640, -4.242637
  4.949746, -4.949744
  4.949746, -4.949744
  4.242640, -5.656851
  4.242640, -5.656851
  3.535533, -4.949744
  3.535533, -4.949744
  2.828426, -5.656851
  2.828426, -5.656851
  2.828426, -5.656851
  3.535533, -4.949744
  3.535533, -4.949744
  4.242640, -5.656850
  4.242640, -5.656850
  4.242640, -5.656850
  3.535533, -4.949743
  2.828426, -4.242636
  2.828426, -4.242636
  3.535533, -3.535529
  3.535533, -3.535529
  3.535533, -3.535529
  2.828426, -4.242636
  2.828426, -4.242636
  3.535533, -4.949742
  3.535533, -4.949742
  3.535533, -4.949742
  2.828427, -4.242635
  2.828427, -4.242635
  3.535533, -3.535528
  3.535533, -3.535528
  3.535533, -3.535528
  2.828426, -4.242635
  2.121319, -4.949741
  2.121319, -4.949741
  1.414212, -4.242635
  0.707104, -3.535529
  0.707104, -3.535529
 -0.000003, -4.242636
 -0.000003, -4.242636
 -0.000003, -4.242636
  0.707104, -3.535529
  0.707104, -3.535529
  1.414211, -4.242636
  1.414211, -4.242636
  1.414211, -4.242636
  0.707104, -3.535530
 -0.000004, -2.828424
 -0.000004, -2.828424
  0.707103, -2.121316
  0.707103, -2.121316
  0.707103, -2.121316
 -0.000003, -2.828424
 -0.000003, -2.828424
  0.707103, -3.535531
  1.414210, -4.242638
  1.414210, -4.242638
  1.414210, -4.242638
  0.707102, -3.535532
  0.707102, -3.535532
 -0.000005, -4.242639
 -0.000005, -4.242639
 -0.000005, -4.242639
  0.707102, -3.535532
  0.707102, -3.535532
  1.414208, -4.242639
  1.414208, -4.242639
  1.414208, -4.242639
  0.707102, -3.535532
  0.707102, -3.535532
 -0.000005, -4.242640
 -0.000005, -4.242640
 -0.000005, -4.242640
  0.707102, -3.535532
  0.707102, -3.535532
  1.414208, -4.242640
  1.414208, -4.242640
  1.414208, -4.242640
  0.707102, -3.535533
 -0.000005, -2.828426
 -0.000005, -2.828426
  0.707102, -2.121320
  0.707102, -2.121320
  0.707102, -2.121320
  1.414209, -1.414213
  1.414209, -1.414213
  0.707102, -0.707107
 -0.000005,  0.000000
 -0.000005,  0.000000
 -0.000005,  0.000000
  0.707101, -0.707107
  0.707101, -0.707107
  1.414208, -0.000000
  1.414208, -0.000000
  1.414208, -0.000000
  0.707102, -0.707108
  0.707102, -0.707108
 -0.000005, -0.000001
 -0.000005, -0.000001
 -0.000005, -0.000001
 -0.000005, -0.000001
 -0.707111, -0.707108
 -0.707111, -0.707108
 -0.000005, -1.414215
  0.707102, -2.121323
  0.707102, -2.121323
  0.707102, -2.121323
 -0.000006, -1.414216
 -0.000006, -1.414216
 -0.707113, -2.121323
 -0.707113, -2.121323
 -0.707113, -2.121323
 -0.000006, -1.414216
 -0.000006, -1.414216
  0.707100, -2.121323
  0.707100, -2.121323
 -0.000006, -2.828431
 -0.000006, -2.828431
  0.707101, -3.535538
  0.707101, -3.535538
  0.707101, -3.535538
 -0.000007, -2.828432
 -0.000007, -2.828432
  0.707100, -2.121324
  0.707100, -2.121324
  0.707100, -2.121324
 -0.000006, -2.828432
 -0.707112, -3.535540
 -0.707112, -3.535540
 -1.414219, -2.828433
 -1.414219, -2.828433
 -1.414219, -2.828433
 -0.707112, -3.535539
 -0.707112, -3.535539
 -0.000005, -2.828433
 -0.000005, -2.828433
 -0.000005, -2.828433
 -0.707111, -3.535540
 -0.707111, -3.535540
 -1.414218, -2.828434
 -1.414218, -2.828434
 -1.414218, -2.828434
 -0.707110, -3.535540
 -0.000003, -4.242646
 -0.000003, -4.242646
 -0.707110, -4.949753
 -1.414216, -5.656860
 -1.414216, -5.656860
 -0.707109, -6.363966
 -0.707109, -6.363966
 -0.707109, -6.363966
 -1.414216, -5.656859
 -1.414216, -5.656859
 -0.707109, -4.949753
 -0.707109, -4.949753
 -0.707109, -4.949753
 -1.414215, -5.656860
 -2.121322, -6.363967
 -2.121322, -6.363967
 -2.828428, -5.656860
 -2.828428, -5.656860
 -2.828428, -5.656860
 -2.121322, -6.363966
 -2.121322, -6.363966
 -1.414216, -5.656859
 -0.707109, -4.949751
 -0.707109, -4.949751
 -0.707109, -4.949751
 -1.414216, -5.656858
 -1.414216, -5.656858
 -0.707109, -6.363965
 -0.707109, -6.363965
 -0.707109, -6.363965
 -1.414215, -5.656858
 -1.414215, -5.656858
 -0.707109, -4.949750
 -0.000003, -4.242642
 -0.000003, -4.242642
 -0.707109, -3.535535
 -0.707109, -3.535535
 -0.707109, -3.535535
 -0.000002, -4.242641
 -0.000002, -4.242641
 -0.707108, -4.949748
 -0.707108, -4.949748
 -0.707108, -4.949748
 -0.000002, -4.242641
  0.707104, -3.535533
  0.707104, -3.535533
  1.414211, -4.242640
  1.414211, -4.242640
  1.414211, -4.242640
  2.121318, -4.949747
  2.121318, -4.949747
  2.828424, -4.242639
  3.535530, -3.535532
  3.535530, -3.535532
  3.535530, -3.535532
  2.828424, -4.242639
  2.828424, -4.242639
  3.535531, -4.949745
  3.535531, -4.949745
  3.535531, -4.949745
  2.828424, -4.242638
  2.828424, -4.242638
  3.535531, -3.535530
  3.535531, -3.535530
  3.535531, -3.535530
  3.535531, -3.535530
  2.828424, -2.828423
  2.828424, -2.828423
  2.121317, -3.535530
  1.414211, -4.242637
  1.414211, -4.242637
  1.414211, -4.242637
  2.121318, -3.535531
  2.121318, -3.535531
  1.414211, -2.828424
  1.414211, -2.828424
  1.414211, -2.828424
  2.121318, -3.535530
  2.121318, -3.535530
  1.414212, -4.242637
  1.414212, -4.242637
  0.707105, -3.535530
  0.707105, -3.535530
 -0.000001, -4.242637
 -0.000001, -4.242637
 -0.000001, -4.242637
  0.707106, -3.535531
  0.707106, -3.535531
  1.414213, -4.242637
  1.414213, -4.242637
  1.414213, -4.242637
  0.707107, -3.535530
  0.000000, -2.828422
  0.000000, -2.828422
  0.707106, -2.121315
  0.707106, -2.121315
  0.707106, -2.121315
 -0.000001, -2.828422
 -0.000001, -2.828422
  0.707106, -3.535528
  0.707106, -3.535528
  0.707106, -3.535528
 -0.000000, -2.828421
 -0.000000, -2.828421
  0.707106, -2.121314
  0.707106, -2.121314
  0.707106, -2.121314
 -0.000001, -2.828420
 -0.707108, -3.535527
 -0.707108, -3.535527
 -1.414214, -2.828419
 -2.121320, -2.121312
 -2.121320, -2.121312
 -2.828428, -2.828418
 -2.828428, -2.828418
 -2.828428, -2.828418
 -2.121321, -2.121311
 -2.121321, -2.121311
 -1.414214, -2.828417
 -1.414214, -2.828417
 -1.414214, -2.828417
 -2.121320, -2.121310
 -2.828427, -1.414202
 -2.828427, -1.414202
 -2.121321, -0.707094
 -2.121321, -0.707094
 -2.121321, -0.707094
 -2.828427, -1.414201
 -2.828427, -1.414201
 -2.121320, -2.121307
 -1.414212, -2.828412
 -1.414212, -2.828412
 -1.414212, -2.828412
 -2.121318, -2.121305
 -2.121318, -2.121305
 -2.828425, -2.828412
 -2.828425, -2.828412
 -2.828425, -2.828412
 -2.121320, -2.121303
 -2.121320, -2.121303
 -1.414212, -2.828409
 -1.414212, -2.828409
 -1.414212, -2.828409
 -2.121319, -2.121303
 -2.121319, -2.121303
 -2.828425, -2.828410
 -2.828425, -2.828410
 -2.828425, -2.828410
 -2.121320, -2.121302
 -2.121320, -2.121302
 -1.414212, -2.828407
 -1.414212, -2.828407
 -1.414212, -2.828407
 -2.121319, -2.121301
 -2.828426, -1.414194
 -2.828426, -1.414194
 -2.121319, -0.707088
 -2.121319, -0.707088
 -2.121319, -0.707088
 -1.414212,  0.000019
 -1.414212,  0.000019
 -2.121319,  0.707126
 -2.828426,  1.414232
 -2.828426,  1.414232
 -2.828426,  1.414232
 -2.121318,  0.707126
 -2.121318,  0.707126
 -1.414213,  1.414235
 -1.414213,  1.414235
 -1.414213,  1.414235
 -2.121319,  0.707127
 -2.121319,  0.707127
 -2.828426,  1.414234
 -2.828426,  1.414234
 -2.121319,  2.121340
 -2.121319,  2.121340
 -2.828426,  2.828447
 -3.535533,  3.535554
 -3.535533,  3.535554
 -3.535533,  3.535554
 -2.828425,  2.828448
 -2.828425,  2.828448
 -2.121320,  3.535556
 -2.121320,  3.535556
 -2.121320,  3.535556
 -2.828426,  2.828449
 -2.828426,  2.828449
 -3.535533,  3.535555
 -3.535533,  3.535555
 -3.535533,  3.535555
 -3.535533,  3.535555
 -4.242639,  2.828448
 -4.242639,  2.828448
 -3.535531,  2.121342
 -2.828424,  1.414236
 -2.828424,  1.414236
 -2.828424,  1.414236
 -3.535530,  2.121344
 -3.535530,  2.121344
 -4.242637,  1.414238
 -4.242637,  1.414238
 -4.242637,  1.414238
 -3.535532,  2.121346
 -3.535532,  2.121346
 -2.828424,  1.414240
 -2.828424,  1.414240
 -2.121318,  2.121348
 -2.121318,  2.121348
 -2.828424,  2.828456
 -2.828424,  2.828456
 -2.828424,  2.828456
 -2.121317,  2.121349
 -2.121317,  2.121349
 -2.828424,  1.414243
 -2.828424,  1.414243
 -2.828424,  1.414243
 -2.121319,  2.121351
 -1.414214,  2.828460
 -1.414214,  2.828460
 -0.707106,  2.121354
 -0.707106,  2.121354
 -0.707106,  2.121354
 -1.414213,  2.828460
 -1.414213,  2.828460
 -2.121319,  2.121353
 -2.121319,  2.121353
 -2.121319,  2.121353
 -1.414214,  2.828461
 -1.414214,  2.828461
 -0.707106,  2.121356
 -0.707106,  2.121356
 -0.707106,  2.121356
 -1.414213,  2.828462
 -2.121320,  3.535569
 -2.121320,  3.535569
 -1.414213,  4.242675
 -1.414213,  4.242675
 -1.414213,  4.242675
 -2.121318,  3.535567
 -2.121318,  3.535567
 -1.414212,  2.828460
 -0.707106,  2.121352
 -0.707106,  2.121352
 -0.707106,  2.121352
 -1.414213,  2.828458
 -1.414213,  2.828458
 -2.121319,  2.121351
 -2.121319,  2.121351
 -2.121319,  2.121351
 -1.414212,  2.828458
 -1.414212,  2.828458
 -0.707106,  2.121350
 "
/>
</svg>
