<svg xmlns="http://www.w3.org/2000/svg"
 viewBox="-67.987015 -44.40223 976.849 1586.0945"
>
<polyline
 fill="none" stroke="green" stroke-width="0.25%"
 points="
  0.000000,  0.000000
 -0.000000,  1.000000
 -0.000000,  1.000000
  0.342020,  1.939693
  0.342020,  1.939693
  0.342020,  2.939692
  0.342020,  2.939692
 -0.000000,  3.879385
 -0.342020,  4.819078
 -0.342020,  4.819078
 -0.342020,  5.819078
 -0.342020,  5.819078
 -0.000000,  6.758770
 -0.000000,  6.758770
 -0.000000,  7.758770
 -0.000000,  7.758770
  0.342020,  8.698462
  0.342020,  8.698462
  0.984808,  9.464507
  0.984808,  9.464507
  1.326828, 10.404200
  1.326828, 10.404200
  1.326828, 11.404200
  1.326828, 12.404200
  1.326828, 12.404200
  1.668848, 13.343892
  1.668848, 13.343892
  2.311636, 14.109937
  2.311636, 14.109937
  2.653656, 15.049629
  2.653656, 15.049629
  2.653656, 16.049630
  2.653656, 16.049630
  2.995676, 16.989323
  2.995676, 16.989323
  2.995676, 17.989323
  2.995676, 17.989323
  2.653656, 18.929016
  2.311636, 19.868710
  2.311636, 19.868710
  2.311636, 20.868710
  2.311636, 20.868710
  2.653656, 21.808403
  2.653656, 21.808403
  2.653656, 22.808403
  2.653656, 22.808403
  2.311636, 23.748096
  2.311636, 23.748096
  2.311636, 24.748096
  2.311636, 24.748096
  1.969616, 25.687790
  1.969616, 25.687790
  1.326828, 26.453835
  0.684041, 27.219880
  0.684041, 27.219880
  0.342020, 28.159573
  0.342020, 28.159573
  0.342020, 29.159573
  0.342020, 29.159573
  0.000000, 30.099266
 -0.342020, 31.038960
 -0.342020, 31.038960
 -0.342020, 32.038960
 -0.342020, 32.038960
 -0.684040, 32.978653
 -0.684040, 32.978653
 -1.326828, 33.744698
 -1.969615, 34.510742
 -1.969615, 34.510742
 -2.311635, 35.450436
 -2.311635, 35.450436
 -2.311635, 36.450436
 -2.311635, 36.450436
 -2.653655, 37.390130
 -2.653655, 37.390130
 -2.653655, 38.390130
 -2.653655, 38.390130
 -2.311635, 39.329823
 -2.311635, 39.329823
 -2.311635, 40.329823
 -2.311635, 40.329823
 -2.653655, 41.269516
 -2.995675, 42.209210
 -2.995675, 42.209210
 -2.995675, 43.209210
 -2.995675, 43.209210
 -2.653655, 44.148903
 -2.653655, 44.148903
 -2.653655, 45.148903
 -2.653655, 45.148903
 -2.311635, 46.088596
 -2.311635, 46.088596
 -1.668847, 46.854640
 -1.668847, 46.854640
 -1.326827, 47.794334
 -1.326827, 47.794334
 -1.326827, 48.794334
 -1.326827, 49.794334
 -1.326827, 49.794334
 -0.984807, 50.734028
 -0.984807, 50.734028
 -0.342019, 51.500072
 -0.342019, 51.500072
  0.000001, 52.439766
  0.000001, 52.439766
  0.000001, 53.439766
  0.000001, 53.439766
  0.342021, 54.379460
  0.342021, 54.379460
  0.342021, 55.379460
  0.342021, 55.379460
  0.000001, 56.319153
 -0.342019, 57.258846
 -0.342019, 57.258846
 -0.342019, 58.258846
 -0.342019, 58.258846
  0.000001, 59.198540
  0.000001, 59.198540
  0.000001, 60.198540
  0.000001, 60.198540
  0.342021, 61.138233
  0.342021, 61.138233
  0.984808, 61.904278
  0.984808, 61.904278
  1.326829, 62.843970
  1.326829, 62.843970
  1.326829, 63.843970
  1.326829, 64.843970
  1.326829, 64.843970
  1.668849, 65.783660
  1.668849, 65.783660
  2.311636, 66.549706
  2.311636, 66.549706
  2.653656, 67.489395
  2.653656, 67.489395
  3.296444, 68.255440
  3.296444, 68.255440
  4.162469, 68.755440
  4.162469, 68.755440
  4.805257, 69.521484
  4.805257, 69.521484
  5.147277, 70.461174
  5.489297, 71.400860
  5.489297, 71.400860
  6.132084, 72.166910
  6.132084, 72.166910
  6.998110, 72.666910
  6.998110, 72.666910
  7.640897, 73.432950
  7.640897, 73.432950
  7.982917, 74.372640
  7.982917, 74.372640
  8.625705, 75.138690
  8.625705, 75.138690
  8.967725, 76.078380
  8.967725, 76.078380
  8.967725, 77.078380
  8.967725, 78.078380
  8.967725, 78.078380
  9.309745, 79.018070
  9.309745, 79.018070
  9.952533, 79.784110
  9.952533, 79.784110
 10.294553, 80.723800
 10.294553, 80.723800
 10.294553, 81.723800
 10.294553, 81.723800
 10.636573, 82.663490
 10.636573, 82.663490
 10.636573, 83.663490
 10.636573, 83.663490
 10.294553, 84.603180
  9.952533, 85.542870
  9.952533, 85.542870
  9.952533, 86.542870
  9.952533, 86.542870
 10.294553, 87.482560
 10.294553, 87.482560
 10.294553, 88.482560
 10.294553, 89.482560
 10.294553, 89.482560
 10.636573, 90.422250
 10.636573, 90.422250
 10.636573, 91.422250
 10.636573, 91.422250
 10.294553, 92.361940
  9.952533, 93.301630
  9.952533, 93.301630
  9.952533, 94.301630
  9.952533, 94.301630
 10.294553, 95.241320
 10.294553, 95.241320
 10.294553, 96.241320
 10.294553, 96.241320
 10.636573, 97.181010
 10.636573, 97.181010
 11.279361, 97.947050
 11.279361, 97.947050
 11.621381, 98.886740
 11.621381, 98.886740
 11.621381, 99.886740
 11.621381,100.886740
 11.621381,100.886740
 11.963401,101.826430
 11.963401,101.826430
 12.606189,102.592476
 12.606189,102.592476
 12.948209,103.532166
 12.948209,103.532166
 13.590997,104.298210
 13.590997,104.298210
 14.457022,104.798210
 14.457022,104.798210
 15.099810,105.564255
 15.099810,105.564255
 15.441830,106.503944
 15.783850,107.443634
 15.783850,107.443634
 16.426638,108.209680
 16.426638,108.209680
 17.292664,108.709680
 17.292664,108.709680
 17.935452,109.475720
 17.935452,109.475720
 18.277472,110.415410
 18.277472,110.415410
 18.920260,111.181460
 18.920260,111.181460
 19.262280,112.121150
 19.262280,112.121150
 19.262280,113.121150
 19.262280,114.121150
 19.262280,114.121150
 19.604300,115.060840
 19.604300,115.060840
 20.247087,115.826880
 20.247087,115.826880
 20.589108,116.766570
 20.589108,116.766570
 20.589108,117.766570
 20.589108,117.766570
 20.931128,118.706260
 20.931128,118.706260
 20.931128,119.706260
 20.931128,119.706260
 20.589108,120.645950
 20.247087,121.585640
 20.247087,121.585640
 20.247087,122.585640
 20.247087,122.585640
 20.589108,123.525330
 20.589108,123.525330
 20.589108,124.525330
 20.589108,124.525330
 20.931128,125.465020
 20.931128,125.465020
 21.573915,126.231064
 21.573915,126.231064
 21.915936,127.170750
 21.915936,127.170750
 21.915936,128.170750
 21.915936,129.170750
 21.915936,129.170750
 22.257956,130.110440
 22.257956,130.110440
 22.900743,130.876480
 22.900743,130.876480
 23.242764,131.816180
 23.242764,131.816180
 23.242764,132.816180
 23.242764,132.816180
 23.584784,133.755870
 23.584784,133.755870
 23.584784,134.755870
 23.584784,134.755870
 23.242764,135.695570
 22.900743,136.635270
 22.900743,136.635270
 22.900743,137.635270
 22.900743,137.635270
 23.242764,138.574970
 23.242764,138.574970
 23.242764,139.574970
 23.242764,139.574970
 22.900743,140.514660
 22.900743,140.514660
 22.900743,141.514660
 22.900743,141.514660
 22.558723,142.454360
 22.558723,142.454360
 21.915936,143.220400
 21.273148,143.986430
 21.273148,143.986430
 20.931128,144.926130
 20.931128,144.926130
 20.931128,145.926130
 20.931128,145.926130
 20.589108,146.865830
 20.247087,147.805530
 20.247087,147.805530
 20.247087,148.805530
 20.247087,148.805530
 19.905067,149.745220
 19.905067,149.745220
 19.262280,150.511260
 18.619492,151.277300
 18.619492,151.277300
 18.277472,152.217000
 18.277472,152.217000
 18.277472,153.217000
 18.277472,153.217000
 17.935452,154.156700
 17.935452,154.156700
 17.935452,155.156700
 17.935452,155.156700
 18.277472,156.096390
 18.277472,156.096390
 18.277472,157.096390
 18.277472,157.096390
 17.935452,158.036090
 17.593431,158.975780
 17.593431,158.975780
 17.593431,159.975780
 17.593431,159.975780
 17.935452,160.915480
 17.935452,160.915480
 17.935452,161.915480
 17.935452,161.915480
 18.277472,162.855180
 18.277472,162.855180
 18.920260,163.621220
 18.920260,163.621220
 19.262280,164.560910
 19.262280,164.560910
 19.262280,165.560910
 19.262280,166.560910
 19.262280,166.560910
 19.604300,167.500610
 19.604300,167.500610
 20.247087,168.266650
 20.247087,168.266650
 20.589108,169.206340
 20.589108,169.206340
 20.589108,170.206340
 20.589108,170.206340
 20.931128,171.146040
 20.931128,171.146040
 20.931128,172.146040
 20.931128,172.146040
 20.589108,173.085740
 20.247087,174.025440
 20.247087,174.025440
 20.247087,175.025440
 20.247087,175.025440
 20.589108,175.965130
 20.589108,175.965130
 20.589108,176.965130
 20.589108,176.965130
 20.247087,177.904830
 20.247087,177.904830
 20.247087,178.904830
 20.247087,178.904830
 19.905067,179.844530
 19.905067,179.844530
 19.262280,180.610570
 18.619492,181.376600
 18.619492,181.376600
 18.277472,182.316300
 18.277472,182.316300
 18.277472,183.316300
 18.277472,183.316300
 17.935452,184.256000
 17.935452,184.256000
 17.935452,185.256000
 17.935452,185.256000
 18.277472,186.195700
 18.277472,186.195700
 18.277472,187.195700
 18.277472,187.195700
 17.935452,188.135390
 17.593431,189.075090
 17.593431,189.075090
 17.593431,190.075090
 17.593431,190.075090
 17.935452,191.014790
 17.935452,191.014790
 17.935452,192.014790
 17.935452,192.014790
 17.593431,192.954480
 17.593431,192.954480
 17.593431,193.954480
 17.593431,193.954480
 17.251411,194.894180
 17.251411,194.894180
 16.608624,195.660220
 15.965836,196.426250
 15.965836,196.426250
 15.623816,197.365950
 15.623816,197.365950
 15.623816,198.365950
 15.623816,198.365950
 15.281796,199.305650
 15.281796,199.305650
 14.639008,200.071690
 14.639008,200.071690
 14.296988,201.011380
 14.296988,201.011380
 13.654200,201.777420
 13.654200,201.777420
 12.788175,202.277420
 11.922150,202.777420
 11.922150,202.777420
 11.279362,203.543460
 11.279362,203.543460
 10.937342,204.483150
 10.937342,204.483150
 10.294554,205.249190
  9.651766,206.015230
  9.651766,206.015230
  9.309746,206.954930
  9.309746,206.954930
  8.666958,207.720960
  8.666958,207.720960
  7.800932,208.220960
  6.934907,208.720960
  6.934907,208.720960
  6.292120,209.487000
  6.292120,209.487000
  5.950100,210.426700
  5.950100,210.426700
  5.307312,211.192730
  5.307312,211.192730
  4.965292,212.132430
  4.965292,212.132430
  4.965292,213.132430
  4.965292,213.132430
  4.623272,214.072130
  4.623272,214.072130
  3.980484,214.838170
  3.337697,215.604200
  3.337697,215.604200
  2.995676,216.543900
  2.995676,216.543900
  2.995676,217.543900
  2.995676,217.543900
  2.653656,218.483600
  2.653656,218.483600
  2.653656,219.483600
  2.653656,219.483600
  2.995676,220.423300
  2.995676,220.423300
  2.995676,221.423300
  2.995676,221.423300
  2.653656,222.362990
  2.311636,223.302690
  2.311636,223.302690
  2.311636,224.302690
  2.311636,224.302690
  2.653656,225.242390
  2.653656,225.242390
  2.653656,226.242390
  2.653656,226.242390
  2.311636,227.182080
  2.311636,227.182080
  2.311636,228.182080
  2.311636,228.182080
  1.969616,229.121780
  1.969616,229.121780
  1.326829,229.887820
  0.684041,230.653850
  0.684041,230.653850
  0.342021,231.593550
  0.342021,231.593550
  0.342021,232.593550
  0.342021,232.593550
  0.000001,233.533250
 -0.342019,234.472950
 -0.342019,234.472950
 -0.342019,235.472950
 -0.342019,235.472950
 -0.684040,236.412640
 -0.684040,236.412640
 -1.326827,237.178680
 -1.969615,237.944720
 -1.969615,237.944720
 -2.311635,238.884410
 -2.311635,238.884410
 -2.311635,239.884410
 -2.311635,239.884410
 -2.653655,240.824110
 -2.653655,240.824110
 -2.653655,241.824110
 -2.653655,241.824110
 -2.311634,242.763810
 -2.311634,242.763810
 -2.311634,243.763810
 -2.311634,243.763810
 -2.653655,244.703500
 -2.995675,245.643200
 -2.995675,245.643200
 -2.995675,246.643200
 -2.995675,246.643200
 -2.653655,247.582900
 -2.653655,247.582900
 -2.653655,248.582900
 -2.653655,248.582900
 -2.995675,249.522600
 -2.995675,249.522600
 -2.995675,250.522600
 -2.995675,250.522600
 -3.337695,251.462300
 -3.337695,251.462300
 -3.980482,252.228330
 -4.623270,252.994370
 -4.623270,252.994370
 -4.965290,253.934070
 -4.965290,253.934070
 -4.965290,254.934070
 -4.965290,254.934070
 -5.307310,255.873760
 -5.307310,255.873760
 -5.950098,256.639800
 -5.950098,256.639800
 -6.292118,257.579500
 -6.292118,257.579500
 -6.934905,258.345550
 -6.934905,258.345550
 -7.800930,258.845550
 -8.666956,259.345550
 -8.666956,259.345550
 -9.309744,260.111600
 -9.309744,260.111600
 -9.651764,261.051300
 -9.651764,261.051300
-10.294552,261.817350
-10.937340,262.583400
-10.937340,262.583400
-11.279360,263.523100
-11.279360,263.523100
-11.922148,264.289150
-11.922148,264.289150
-12.788173,264.789150
-13.654198,265.289150
-13.654198,265.289150
-14.296986,266.055200
-14.296986,266.055200
-14.639006,266.994900
-14.639006,266.994900
-15.281794,267.760960
-15.281794,267.760960
-15.623814,268.700650
-15.623814,268.700650
-15.623814,269.700650
-15.623814,269.700650
-15.965834,270.640350
-15.965834,270.640350
-16.608622,271.406400
-17.251410,272.172450
-17.251410,272.172450
-17.593430,273.112150
-17.593430,273.112150
-17.593430,274.112150
-17.593430,274.112150
-17.935450,275.051850
-17.935450,275.051850
-17.935450,276.051850
-17.935450,276.051850
-17.593430,276.991550
-17.593430,276.991550
-17.593430,277.991550
-17.593430,277.991550
-17.935450,278.931240
-18.277470,279.870940
-18.277470,279.870940
-18.277470,280.870940
-18.277470,280.870940
-17.935450,281.810640
-17.935450,281.810640
-17.935450,282.810640
-17.935450,282.810640
-18.277470,283.750340
-18.277470,283.750340
-18.277470,284.750340
-18.277470,284.750340
-18.619490,285.690030
-18.619490,285.690030
-19.262278,286.456100
-19.905066,287.222140
-19.905066,287.222140
-20.247086,288.161830
-20.247086,288.161830
-20.247086,289.161830
-20.247086,289.161830
-20.589106,290.101530
-20.589106,290.101530
-20.589106,291.101530
-20.589106,291.101530
-20.247086,292.041230
-20.247086,292.041230
-20.247086,293.041230
-20.247086,293.041230
-20.589106,293.980930
-20.931126,294.920620
-20.931126,294.920620
-20.931126,295.920620
-20.931126,295.920620
-20.589106,296.860320
-20.589106,296.860320
-20.589106,297.860320
-20.589106,297.860320
-20.247086,298.800020
-20.247086,298.800020
-19.604298,299.566070
-19.604298,299.566070
-19.262278,300.505770
-19.262278,300.505770
-19.262278,301.505770
-19.262278,302.505770
-19.262278,302.505770
-18.920258,303.445470
-18.920258,303.445470
-18.277470,304.211520
-18.277470,304.211520
-17.935450,305.151200
-17.935450,305.151200
-17.935450,306.151200
-17.935450,306.151200
-17.593430,307.090900
-17.593430,307.090900
-17.593430,308.090900
-17.593430,308.090900
-17.935450,309.030600
-18.277470,309.970300
-18.277470,309.970300
-18.277470,310.970300
-18.277470,310.970300
-17.935450,311.910000
-17.935450,311.910000
-17.935450,312.910000
-17.935450,312.910000
-18.277470,313.849700
-18.277470,313.849700
-18.277470,314.849700
-18.277470,314.849700
-18.619490,315.789400
-18.619490,315.789400
-19.262278,316.555450
-19.905066,317.321500
-19.905066,317.321500
-20.247086,318.261200
-20.247086,318.261200
-20.247086,319.261200
-20.247086,319.261200
-20.589106,320.200900
-20.931126,321.140600
-20.931126,321.140600
-20.931126,322.140600
-20.931126,322.140600
-21.273146,323.080300
-21.273146,323.080300
-21.915934,323.846340
-22.558722,324.612400
-22.558722,324.612400
-22.900742,325.552100
-22.900742,325.552100
-22.900742,326.552100
-22.900742,326.552100
-23.242762,327.491800
-23.242762,327.491800
-23.242762,328.491800
-23.242762,328.491800
-22.900742,329.431500
-22.900742,329.431500
-22.900742,330.431500
-22.900742,330.431500
-23.242762,331.371200
-23.584782,332.310880
-23.584782,332.310880
-23.584782,333.310880
-23.584782,333.310880
-23.242762,334.250580
-23.242762,334.250580
-23.242762,335.250580
-23.242762,335.250580
-22.900742,336.190280
-22.900742,336.190280
-22.257954,336.956330
-22.257954,336.956330
-21.915934,337.896030
-21.915934,337.896030
-21.915934,338.896030
-21.915934,339.896030
-21.915934,339.896030
-21.573914,340.835720
-21.573914,340.835720
-20.931126,341.601780
-20.931126,341.601780
-20.589106,342.541470
-20.589106,342.541470
-20.589106,343.541470
-20.589106,343.541470
-20.247086,344.481170
-20.247086,344.481170
-20.247086,345.481170
-20.247086,345.481170
-20.589106,346.420870
-20.931126,347.360570
-20.931126,347.360570
-20.931126,348.360570
-20.931126,348.360570
-20.589106,349.300260
-20.589106,349.300260
-20.589106,350.300260
-20.589106,350.300260
-20.247086,351.239960
-20.247086,351.239960
-19.604298,352.006000
-19.604298,352.006000
-19.262278,352.945700
-19.262278,352.945700
-19.262278,353.945700
-19.262278,354.945700
-19.262278,354.945700
-18.920258,355.885400
-18.920258,355.885400
-18.277470,356.651460
-18.277470,356.651460
-17.935450,357.591160
-17.935450,357.591160
-17.292662,358.357200
-17.292662,358.357200
-16.426636,358.857200
-16.426636,358.857200
-15.783848,359.623260
-15.783848,359.623260
-15.441828,360.562960
-15.099808,361.502660
-15.099808,361.502660
-14.457020,362.268700
-14.457020,362.268700
-13.590995,362.768700
-13.590995,362.768700
-12.948207,363.534760
-12.948207,363.534760
-12.606187,364.474460
-12.606187,364.474460
-11.963399,365.240500
-11.963399,365.240500
-11.621379,366.180200
-11.621379,366.180200
-11.621379,367.180200
-11.621379,368.180200
-11.621379,368.180200
-11.279359,369.119900
-11.279359,369.119900
-10.636571,369.885960
-10.636571,369.885960
-10.294551,370.825650
-10.294551,370.825650
-10.294551,371.825650
-10.294551,371.825650
 -9.952531,372.765350
 -9.952531,372.765350
 -9.952531,373.765350
 -9.952531,373.765350
-10.294551,374.705050
-10.636571,375.644740
-10.636571,375.644740
-10.636571,376.644740
-10.636571,376.644740
-10.294551,377.584440
-10.294551,377.584440
-10.294551,378.584440
-10.294551,379.584440
-10.294551,379.584440
 -9.952531,380.524140
 -9.952531,380.524140
 -9.952531,381.524140
 -9.952531,381.524140
-10.294551,382.463840
-10.636571,383.403530
-10.636571,383.403530
-10.636571,384.403530
-10.636571,384.403530
-10.294551,385.343230
-10.294551,385.343230
-10.294551,386.343230
-10.294551,386.343230
 -9.952531,387.282930
 -9.952531,387.282930
 -9.309743,388.048980
 -9.309743,388.048980
 -8.967723,388.988680
 -8.967723,388.988680
 -8.967723,389.988680
 -8.967723,390.988680
 -8.967723,390.988680
 -8.625703,391.928380
 -8.625703,391.928380
 -7.982915,392.694430
 -7.982915,392.694430
 -7.640895,393.634120
 -7.640895,393.634120
 -6.998108,394.400180
 -6.998108,394.400180
 -6.132082,394.900180
 -6.132082,394.900180
 -5.489295,395.666230
 -5.489295,395.666230
 -5.147275,396.605930
 -4.805255,397.545620
 -4.805255,397.545620
 -4.162468,398.311680
 -4.162468,398.311680
 -3.296442,398.811680
 -3.296442,398.811680
 -2.653654,399.577730
 -2.653654,399.577730
 -2.311634,400.517430
 -2.311634,400.517430
 -1.668846,401.283480
 -1.668846,401.283480
 -1.326826,402.223180
 -1.326826,402.223180
 -1.326826,403.223180
 -1.326826,404.223180
 -1.326826,404.223180
 -0.984806,405.162870
 -0.984806,405.162870
 -0.342018,405.928920
 -0.342018,405.928920
  0.000002,406.868620
  0.000002,406.868620
  0.000002,407.868620
  0.000002,407.868620
  0.342022,408.808320
  0.342022,408.808320
  0.342022,409.808320
  0.342022,409.808320
  0.000002,410.748020
 -0.342018,411.687700
 -0.342018,411.687700
 -0.342018,412.687700
 -0.342018,412.687700
  0.000002,413.627400
  0.000002,413.627400
  0.000002,414.627400
  0.000002,414.627400
  0.342022,415.567100
  0.342022,415.567100
  0.984809,416.333160
  0.984809,416.333160
  1.326830,417.272860
  1.326830,417.272860
  1.326830,418.272860
  1.326830,419.272860
  1.326830,419.272860
  1.668850,420.212550
  1.668850,420.212550
  2.311637,420.978600
  2.311637,420.978600
  2.653657,421.918300
  2.653657,421.918300
  2.653657,422.918300
  2.653657,422.918300
  2.995678,423.858000
  2.995678,423.858000
  2.995678,424.858000
  2.995678,424.858000
  2.653657,425.797700
  2.311637,426.737400
  2.311637,426.737400
  2.311637,427.737400
  2.311637,427.737400
  2.653657,428.677100
  2.653657,428.677100
  2.653657,429.677100
  2.653657,429.677100
  2.311637,430.616800
  2.311637,430.616800
  2.311637,431.616800
  2.311637,431.616800
  1.969617,432.556500
  1.969617,432.556500
  1.326830,433.322540
  0.684042,434.088600
  0.684042,434.088600
  0.342022,435.028300
  0.342022,435.028300
  0.342022,436.028300
  0.342022,436.028300
  0.000002,436.968000
 -0.342018,437.907680
 -0.342018,437.907680
 -0.342018,438.907680
 -0.342018,438.907680
 -0.684038,439.847380
 -0.684038,439.847380
 -1.326826,440.613430
 -1.969614,441.379500
 -1.969614,441.379500
 -2.311634,442.319180
 -2.311634,442.319180
 -2.311634,443.319180
 -2.311634,443.319180
 -2.653654,444.258880
 -2.653654,444.258880
 -2.653654,445.258880
 -2.653654,445.258880
 -2.311634,446.198580
 -2.311634,446.198580
 -2.311634,447.198580
 -2.311634,447.198580
 -2.653654,448.138280
 -2.995674,449.077970
 -2.995674,449.077970
 -2.995674,450.077970
 -2.995674,450.077970
 -2.653654,451.017670
 -2.653654,451.017670
 -2.653654,452.017670
 -2.653654,452.017670
 -2.311634,452.957370
 -2.311634,452.957370
 -1.668846,453.723420
 -1.668846,453.723420
 -1.326826,454.663120
 -1.326826,454.663120
 -1.326826,455.663120
 -1.326826,456.663120
 -1.326826,456.663120
 -0.984806,457.602800
 -0.984806,457.602800
 -0.342018,458.368870
 -0.342018,458.368870
  0.000002,459.308560
  0.000002,459.308560
  0.000002,460.308560
  0.000002,460.308560
  0.342022,461.248260
  0.342022,461.248260
  0.342022,462.248260
  0.342022,462.248260
  0.000002,463.187960
 -0.342018,464.127660
 -0.342018,464.127660
 -0.342018,465.127660
 -0.342018,465.127660
  0.000002,466.067350
  0.000002,466.067350
  0.000002,467.067350
  0.000002,467.067350
  0.342022,468.007050
  0.342022,468.007050
  0.984810,468.773100
  0.984810,468.773100
  1.326830,469.712800
  1.326830,469.712800
  1.326830,470.712800
  1.326830,471.712800
  1.326830,471.712800
  1.668850,472.652500
  1.668850,472.652500
  2.311638,473.418550
  2.311638,473.418550
  2.653658,474.358250
  2.653658,474.358250
  3.296446,475.124300
  3.296446,475.124300
  4.162471,475.624300
  4.162471,475.624300
  4.805258,476.390350
  4.805258,476.390350
  5.147278,477.330050
  5.489298,478.269740
  5.489298,478.269740
  6.132086,479.035800
  6.132086,479.035800
  6.998111,479.535800
  6.998111,479.535800
  7.640899,480.301850
  7.640899,480.301850
  7.982919,481.241550
  7.982919,481.241550
  8.625707,482.007600
  8.625707,482.007600
  8.967727,482.947300
  8.967727,482.947300
  8.967727,483.947300
  8.967727,484.947300
  8.967727,484.947300
  9.309747,485.887000
  9.309747,485.887000
  9.952535,486.653050
  9.952535,486.653050
 10.294555,487.592740
 10.294555,487.592740
 10.294555,488.592740
 10.294555,488.592740
 10.636575,489.532440
 10.636575,489.532440
 10.636575,490.532440
 10.636575,490.532440
 10.294555,491.472140
  9.952535,492.411830
  9.952535,492.411830
  9.952535,493.411830
  9.952535,493.411830
 10.294555,494.351530
 10.294555,494.351530
 10.294555,495.351530
 10.294555,496.351530
 10.294555,496.351530
 10.636575,497.291230
 10.636575,497.291230
 10.636575,498.291230
 10.636575,498.291230
 10.294555,499.230930
  9.952535,500.170620
  9.952535,500.170620
  9.952535,501.170620
  9.952535,501.170620
 10.294555,502.110320
 10.294555,502.110320
 10.294555,503.110320
 10.294555,503.110320
 10.636575,504.050020
 10.636575,504.050020
 11.279363,504.816070
 11.279363,504.816070
 11.621383,505.755770
 11.621383,505.755770
 11.621383,506.755770
 11.621383,507.755770
 11.621383,507.755770
 11.963403,508.695470
 11.963403,508.695470
 12.606191,509.461520
 12.606191,509.461520
 12.948211,510.401200
 12.948211,510.401200
 13.590999,511.167270
 13.590999,511.167270
 14.457024,511.667270
 14.457024,511.667270
 15.099812,512.433300
 15.099812,512.433300
 15.441832,513.373000
 15.783852,514.312700
 15.783852,514.312700
 16.426640,515.078740
 16.426640,515.078740
 17.292665,515.578740
 17.292665,515.578740
 17.935453,516.344800
 17.935453,516.344800
 18.277473,517.284500
 18.277473,517.284500
 18.920261,518.050540
 18.920261,518.050540
 19.262281,518.990230
 19.262281,518.990230
 19.262281,519.990230
 19.262281,520.990230
 19.262281,520.990230
 19.604301,521.929930
 19.604301,521.929930
 20.247090,522.696000
 20.247090,522.696000
 20.589110,523.635700
 20.589110,523.635700
 21.231897,524.401730
 21.231897,524.401730
 22.097923,524.901730
 22.097923,524.901730
 22.740711,525.667800
 22.740711,525.667800
 23.082731,526.607500
 23.424751,527.547200
 23.424751,527.547200
 24.067540,528.313230
 24.067540,528.313230
 24.933565,528.813230
 24.933565,528.813230
 25.576353,529.579300
 25.576353,529.579300
 26.442379,530.079300
 26.442379,530.079300
 27.427187,530.252900
 27.427187,530.252900
 28.293213,530.752900
 28.293213,530.752900
 28.936000,531.519000
 29.578789,532.285030
 29.578789,532.285030
 30.444815,532.785030
 30.444815,532.785030
 31.429623,532.958700
 31.429623,532.958700
 32.295647,533.458700
 32.295647,533.458700
 32.938435,534.224730
 32.938435,534.224730
 33.804460,534.724730
 33.804460,534.724730
 34.447247,535.490800
 34.447247,535.490800
 34.789270,536.430500
 35.131290,537.370200
 35.131290,537.370200
 35.774080,538.136200
 35.774080,538.136200
 36.640102,538.636200
 36.640102,538.636200
 37.282890,539.402300
 37.282890,539.402300
 37.624912,540.342000
 37.624912,540.342000
 38.267700,541.108030
 38.267700,541.108030
 38.609722,542.047700
 38.609722,542.047700
 38.609722,543.047700
 38.609722,544.047700
 38.609722,544.047700
 38.951744,544.987400
 38.951744,544.987400
 39.594532,545.753500
 39.594532,545.753500
 39.936554,546.693200
 40.278576,547.632900
 40.278576,547.632900
 40.921364,548.398900
 40.921364,548.398900
 41.263386,549.338600
 41.263386,549.338600
 41.263386,550.338600
 41.263386,551.338600
 41.263386,551.338600
 41.605408,552.278300
 41.605408,552.278300
 42.248196,553.044400
 42.248196,553.044400
 42.590218,553.984100
 42.590218,553.984100
 43.233006,554.750100
 43.233006,554.750100
 44.099030,555.250100
 44.099030,555.250100
 44.741817,556.016200
 44.741817,556.016200
 45.083840,556.955900
 45.425860,557.895570
 45.425860,557.895570
 46.068650,558.661600
 46.068650,558.661600
 46.934673,559.161600
 46.934673,559.161600
 47.577460,559.927700
 47.577460,559.927700
 48.443485,560.427700
 48.443485,560.427700
 49.428290,560.601300
 49.428290,560.601300
 50.294315,561.101300
 50.294315,561.101300
 50.937103,561.867400
 51.579890,562.633400
 51.579890,562.633400
 52.445915,563.133400
 52.445915,563.133400
 53.430720,563.307070
 53.430720,563.307070
 54.296745,563.807070
 54.296745,563.807070
 54.939533,564.573100
 54.939533,564.573100
 55.805557,565.073100
 55.805557,565.073100
 56.448345,565.839200
 56.448345,565.839200
 56.790367,566.778900
 57.132390,567.718570
 57.132390,567.718570
 57.775177,568.484600
 57.775177,568.484600
 58.641200,568.984600
 58.641200,568.984600
 59.283990,569.750700
 59.283990,569.750700
 59.626010,570.690370
 59.626010,570.690370
 60.268800,571.456400
 60.268800,571.456400
 60.610820,572.396100
 60.610820,572.396100
 60.610820,573.396100
 60.610820,574.396100
 60.610820,574.396100
 60.952843,575.335800
 60.952843,575.335800
 61.595630,576.101870
 61.595630,576.101870
 61.937653,577.041560
 61.937653,577.041560
 62.580440,577.807600
 62.580440,577.807600
 63.446465,578.307600
 63.446465,578.307600
 64.089250,579.073670
 64.089250,579.073670
 64.431270,580.013370
 64.773285,580.953060
 64.773285,580.953060
 65.416070,581.719100
 65.416070,581.719100
 66.282100,582.219100
 66.282100,582.219100
 66.924880,582.985170
 66.924880,582.985170
 67.266900,583.924870
 67.266900,583.924870
 67.909680,584.690900
 67.909680,584.690900
 68.251700,585.630600
 68.251700,585.630600
 68.251700,586.630600
 68.251700,587.630600
 68.251700,587.630600
 68.593720,588.570300
 68.593720,588.570300
 69.236500,589.336360
 69.236500,589.336360
 69.578520,590.276060
 69.578520,590.276060
 69.578520,591.276060
 69.578520,591.276060
 69.920540,592.215760
 69.920540,592.215760
 69.920540,593.215760
 69.920540,593.215760
 69.578520,594.155460
 69.236500,595.095150
 69.236500,595.095150
 69.236500,596.095150
 69.236500,596.095150
 69.578520,597.034850
 69.578520,597.034850
 69.578520,598.034850
 69.578520,599.034850
 69.578520,599.034850
 69.920540,599.974550
 69.920540,599.974550
 69.920540,600.974550
 69.920540,600.974550
 69.578520,601.914250
 69.236500,602.853940
 69.236500,602.853940
 69.236500,603.853940
 69.236500,603.853940
 69.578520,604.793640
 69.578520,604.793640
 69.578520,605.793640
 69.578520,605.793640
 69.920540,606.733340
 69.920540,606.733340
 70.563324,607.499400
 70.563324,607.499400
 70.905340,608.439100
 70.905340,608.439100
 70.905340,609.439100
 70.905340,610.439100
 70.905340,610.439100
 71.247360,611.378800
 71.247360,611.378800
 71.890144,612.144840
 71.890144,612.144840
 72.232160,613.084530
 72.232160,613.084530
 72.874950,613.850600
 72.874950,613.850600
 73.740974,614.350600
 73.740974,614.350600
 74.383760,615.116640
 74.383760,615.116640
 74.725780,616.056340
 75.067795,616.996030
 75.067795,616.996030
 75.710580,617.762100
 75.710580,617.762100
 76.576610,618.262100
 76.576610,618.262100
 77.219390,619.028140
 77.219390,619.028140
 77.561410,619.967830
 77.561410,619.967830
 78.204190,620.733900
 78.204190,620.733900
 78.546210,621.673600
 78.546210,621.673600
 78.546210,622.673600
 78.546210,623.673600
 78.546210,623.673600
 78.888230,624.613300
 78.888230,624.613300
 79.531010,625.379330
 79.531010,625.379330
 79.873030,626.319030
 79.873030,626.319030
 79.873030,627.319030
 79.873030,627.319030
 80.215050,628.258700
 80.215050,628.258700
 80.215050,629.258700
 80.215050,629.258700
 79.873030,630.198400
 79.531010,631.138100
 79.531010,631.138100
 79.531010,632.138100
 79.531010,632.138100
 79.873030,633.077800
 79.873030,633.077800
 79.873030,634.077800
 79.873030,634.077800
 80.215050,635.017500
 80.215050,635.017500
 80.857834,635.783570
 80.857834,635.783570
 81.199850,636.723270
 81.199850,636.723270
 81.199850,637.723270
 81.199850,638.723270
 81.199850,638.723270
 81.541870,639.662960
 81.541870,639.662960
 82.184654,640.429000
 82.184654,640.429000
 82.526670,641.368700
 82.526670,641.368700
 82.526670,642.368700
 82.526670,642.368700
 82.868690,643.308400
 82.868690,643.308400
 82.868690,644.308400
 82.868690,644.308400
 82.526670,645.248100
 82.184654,646.187800
 82.184654,646.187800
 82.184654,647.187800
 82.184654,647.187800
 82.526670,648.127500
 82.526670,648.127500
 82.526670,649.127500
 82.526670,649.127500
 82.184654,650.067200
 82.184654,650.067200
 82.184654,651.067200
 82.184654,651.067200
 81.842636,652.006900
 81.842636,652.006900
 81.199850,652.772950
 80.557070,653.539000
 80.557070,653.539000
 80.215050,654.478700
 80.215050,654.478700
 80.215050,655.478700
 80.215050,655.478700
 79.873030,656.418400
 79.531010,657.358100
 79.531010,657.358100
 79.531010,658.358100
 79.531010,658.358100
 79.188995,659.297800
 79.188995,659.297800
 78.546210,660.063840
 77.903430,660.829900
 77.903430,660.829900
 77.561410,661.769600
 77.561410,661.769600
 77.561410,662.769600
 77.561410,662.769600
 77.219390,663.709300
 77.219390,663.709300
 77.219390,664.709300
 77.219390,664.709300
 77.561410,665.649000
 77.561410,665.649000
 77.561410,666.649000
 77.561410,666.649000
 77.219390,667.588700
 76.877370,668.528400
 76.877370,668.528400
 76.877370,669.528400
 76.877370,669.528400
 77.219390,670.468100
 77.219390,670.468100
 77.219390,671.468100
 77.219390,671.468100
 77.561410,672.407800
 77.561410,672.407800
 78.204190,673.173800
 78.204190,673.173800
 78.546210,674.113500
 78.546210,674.113500
 78.546210,675.113500
 78.546210,676.113500
 78.546210,676.113500
 78.888230,677.053200
 78.888230,677.053200
 79.531010,677.819300
 79.531010,677.819300
 79.873030,678.759000
 79.873030,678.759000
 79.873030,679.759000
 79.873030,679.759000
 80.215050,680.698670
 80.215050,680.698670
 80.215050,681.698670
 80.215050,681.698670
 79.873030,682.638370
 79.531010,683.578060
 79.531010,683.578060
 79.531010,684.578060
 79.531010,684.578060
 79.873030,685.517760
 79.873030,685.517760
 79.873030,686.517760
 79.873030,687.517760
 79.873030,687.517760
 80.215050,688.457460
 80.215050,688.457460
 80.215050,689.457460
 80.215050,689.457460
 79.873030,690.397160
 79.531010,691.336850
 79.531010,691.336850
 79.531010,692.336850
 79.531010,692.336850
 79.873030,693.276550
 79.873030,693.276550
 79.873030,694.276550
 79.873030,694.276550
 80.215050,695.216250
 80.215050,695.216250
 80.857834,695.982300
 80.857834,695.982300
 81.199850,696.922000
 81.199850,696.922000
 81.199850,697.922000
 81.199850,698.922000
 81.199850,698.922000
 81.541870,699.861700
 81.541870,699.861700
 82.184654,700.627750
 82.184654,700.627750
 82.526670,701.567440
 82.526670,701.567440
 82.526670,702.567440
 82.526670,702.567440
 82.868690,703.507140
 82.868690,703.507140
 82.868690,704.507140
 82.868690,704.507140
 82.526670,705.446840
 82.184654,706.386540
 82.184654,706.386540
 82.184654,707.386540
 82.184654,707.386540
 82.526670,708.326230
 82.526670,708.326230
 82.526670,709.326230
 82.526670,709.326230
 82.184654,710.265900
 82.184654,710.265900
 82.184654,711.265900
 82.184654,711.265900
 81.842636,712.205600
 81.842636,712.205600
 81.199850,712.971700
 80.557070,713.737730
 80.557070,713.737730
 80.215050,714.677400
 80.215050,714.677400
 80.215050,715.677400
 80.215050,715.677400
 79.873030,716.617100
 79.531010,717.556800
 79.531010,717.556800
 79.531010,718.556800
 79.531010,718.556800
 79.188995,719.496500
 79.188995,719.496500
 78.546210,720.262600
 77.903430,721.028600
 77.903430,721.028600
 77.561410,721.968300
 77.561410,721.968300
 77.561410,722.968300
 77.561410,722.968300
 77.219390,723.908000
 77.219390,723.908000
 77.219390,724.908000
 77.219390,724.908000
 77.561410,725.847700
 77.561410,725.847700
 77.561410,726.847700
 77.561410,726.847700
 77.219390,727.787400
 76.877370,728.727100
 76.877370,728.727100
 76.877370,729.727100
 76.877370,729.727100
 77.219390,730.666800
 77.219390,730.666800
 77.219390,731.666800
 77.219390,731.666800
 77.561410,732.606500
 77.561410,732.606500
 78.204190,733.372560
 78.204190,733.372560
 78.546210,734.312260
 78.546210,734.312260
 78.546210,735.312260
 78.546210,736.312260
 78.546210,736.312260
 78.888230,737.251950
 78.888230,737.251950
 79.531010,738.018000
 79.531010,738.018000
 79.873030,738.957700
 79.873030,738.957700
 79.873030,739.957700
 79.873030,739.957700
 80.215050,740.897400
 80.215050,740.897400
 80.215050,741.897400
 80.215050,741.897400
 79.873030,742.837100
 79.531010,743.776800
 79.531010,743.776800
 79.531010,744.776800
 79.531010,744.776800
 79.873030,745.716500
 79.873030,745.716500
 79.873030,746.716500
 79.873030,746.716500
 80.215050,747.656200
 80.215050,747.656200
 80.857834,748.422240
 80.857834,748.422240
 81.199850,749.361940
 81.199850,749.361940
 81.199850,750.361940
 81.199850,751.361940
 81.199850,751.361940
 81.541870,752.301640
 81.541870,752.301640
 82.184654,753.067700
 82.184654,753.067700
 82.526670,754.007400
 82.526670,754.007400
 83.169460,754.773440
 83.169460,754.773440
 84.035484,755.273440
 84.035484,755.273440
 84.678270,756.039500
 84.678270,756.039500
 85.020290,756.979200
 85.362305,757.918900
 85.362305,757.918900
 86.005090,758.684940
 86.005090,758.684940
 86.871120,759.184940
 86.871120,759.184940
 87.513900,759.951000
 87.513900,759.951000
 87.855920,760.890700
 87.855920,760.890700
 88.498700,761.656740
 88.498700,761.656740
 88.840720,762.596440
 88.840720,762.596440
 88.840720,763.596440
 88.840720,764.596440
 88.840720,764.596440
 89.182740,765.536130
 89.182740,765.536130
 89.825520,766.302200
 89.825520,766.302200
 90.167540,767.241900
 90.167540,767.241900
 90.167540,768.241900
 90.167540,768.241900
 90.509560,769.181600
 90.509560,769.181600
 90.509560,770.181600
 90.509560,770.181600
 90.167540,771.121300
 89.825520,772.061000
 89.825520,772.061000
 89.825520,773.061000
 89.825520,773.061000
 90.167540,774.000700
 90.167540,774.000700
 90.167540,775.000700
 90.167540,776.000700
 90.167540,776.000700
 90.509560,776.940370
 90.509560,776.940370
 90.509560,777.940370
 90.509560,777.940370
 90.167540,778.880070
 89.825520,779.819760
 89.825520,779.819760
 89.825520,780.819760
 89.825520,780.819760
 90.167540,781.759460
 90.167540,781.759460
 90.167540,782.759460
 90.167540,782.759460
 90.509560,783.699160
 90.509560,783.699160
 91.152340,784.465200
 91.152340,784.465200
 91.494360,785.404900
 91.494360,785.404900
 91.494360,786.404900
 91.494360,787.404900
 91.494360,787.404900
 91.836380,788.344600
 91.836380,788.344600
 92.479164,789.110660
 92.479164,789.110660
 92.821180,790.050350
 92.821180,790.050350
 93.463970,790.816400
 93.463970,790.816400
 94.329994,791.316400
 94.329994,791.316400
 94.972780,792.082460
 94.972780,792.082460
 95.314800,793.022160
 95.656815,793.961850
 95.656815,793.961850
 96.299600,794.727900
 96.299600,794.727900
 97.165630,795.227900
 97.165630,795.227900
 97.808410,795.993960
 97.808410,795.993960
 98.150430,796.933650
 98.150430,796.933650
 98.793210,797.699700
 98.793210,797.699700
 99.135230,798.639400
 99.135230,798.639400
 99.135230,799.639400
 99.135230,800.639400
 99.135230,800.639400
 99.477250,801.579100
 99.477250,801.579100
100.120030,802.345150
100.120030,802.345150
100.462050,803.284850
100.462050,803.284850
101.104836,804.050900
101.104836,804.050900
101.970860,804.550900
101.970860,804.550900
102.613650,805.316960
102.613650,805.316960
102.955666,806.256650
103.297680,807.196350
103.297680,807.196350
103.940470,807.962400
103.940470,807.962400
104.806496,808.462400
104.806496,808.462400
105.449280,809.228450
105.449280,809.228450
106.315310,809.728450
106.315310,809.728450
107.300120,809.902100
107.300120,809.902100
108.166145,810.402100
108.166145,810.402100
108.808930,811.168150
109.451710,811.934200
109.451710,811.934200
110.317740,812.434200
110.317740,812.434200
111.302550,812.607850
111.302550,812.607850
112.168580,813.107850
112.168580,813.107850
112.811360,813.873900
112.811360,813.873900
113.677390,814.373900
113.677390,814.373900
114.320175,815.139950
114.320175,815.139950
114.662190,816.079650
115.004210,817.019350
115.004210,817.019350
115.646996,817.785400
115.646996,817.785400
116.513020,818.285400
116.513020,818.285400
117.155810,819.051450
117.155810,819.051450
117.497826,819.991150
117.497826,819.991150
118.140610,820.757200
118.140610,820.757200
118.482630,821.696900
118.482630,821.696900
118.482630,822.696900
118.482630,823.696900
118.482630,823.696900
118.824646,824.636600
118.824646,824.636600
119.467430,825.402650
119.467430,825.402650
119.809450,826.342350
120.151470,827.282040
120.151470,827.282040
120.794250,828.048100
120.794250,828.048100
121.136270,828.987800
121.136270,828.987800
121.136270,829.987800
121.136270,830.987800
121.136270,830.987800
121.478290,831.927500
121.478290,831.927500
122.121070,832.693540
122.121070,832.693540
122.463090,833.633240
122.463090,833.633240
123.105870,834.399300
123.105870,834.399300
123.971900,834.899300
123.971900,834.899300
124.614685,835.665340
124.614685,835.665340
124.956700,836.605040
125.298720,837.544740
125.298720,837.544740
125.941505,838.310800
125.941505,838.310800
126.807530,838.810800
126.807530,838.810800
127.450320,839.576840
127.450320,839.576840
128.316350,840.076840
128.316350,840.076840
129.301150,840.250500
129.301150,840.250500
130.167180,840.750500
130.167180,840.750500
130.809970,841.516540
131.452760,842.282600
131.452760,842.282600
132.318790,842.782600
132.318790,842.782600
133.303590,842.956240
133.303590,842.956240
134.169620,843.456240
134.169620,843.456240
134.812410,844.222300
134.812410,844.222300
135.678440,844.722300
135.678440,844.722300
136.321230,845.488340
136.321230,845.488340
136.663250,846.428040
137.005280,847.367740
137.005280,847.367740
137.648070,848.133800
137.648070,848.133800
138.514100,848.633800
138.514100,848.633800
139.156890,849.399840
139.156890,849.399840
139.498920,850.339540
139.498920,850.339540
140.141710,851.105600
140.141710,851.105600
140.483730,852.045300
140.483730,852.045300
140.483730,853.045300
140.483730,854.045300
140.483730,854.045300
140.825760,854.985000
140.825760,854.985000
141.468550,855.751040
141.468550,855.751040
141.810580,856.690730
141.810580,856.690730
142.453370,857.456800
142.453370,857.456800
143.319400,857.956800
143.319400,857.956800
143.962190,858.722840
143.962190,858.722840
144.304210,859.662540
144.646240,860.602230
144.646240,860.602230
145.289030,861.368300
145.289030,861.368300
146.155060,861.868300
146.155060,861.868300
146.797850,862.634340
146.797850,862.634340
147.139880,863.574040
147.139880,863.574040
147.782670,864.340100
147.782670,864.340100
148.124700,865.279800
148.124700,865.279800
148.124700,866.279800
148.124700,867.279800
148.124700,867.279800
148.466720,868.219500
148.466720,868.219500
149.109510,868.985530
149.109510,868.985530
149.451540,869.925230
149.451540,869.925230
149.451540,870.925230
149.451540,870.925230
149.793560,871.864900
149.793560,871.864900
149.793560,872.864900
149.793560,872.864900
149.451540,873.804600
149.109510,874.744300
149.109510,874.744300
149.109510,875.744300
149.109510,875.744300
149.451540,876.684000
149.451540,876.684000
149.451540,877.684000
149.451540,878.684000
149.451540,878.684000
149.793560,879.623700
149.793560,879.623700
149.793560,880.623700
149.793560,880.623700
149.451540,881.563400
149.109510,882.503100
149.109510,882.503100
149.109510,883.503100
149.109510,883.503100
149.451540,884.442800
149.451540,884.442800
149.451540,885.442800
149.451540,885.442800
149.793560,886.382500
149.793560,886.382500
150.436360,887.148560
150.436360,887.148560
150.778380,888.088260
150.778380,888.088260
150.778380,889.088260
150.778380,890.088260
150.778380,890.088260
151.120400,891.027950
151.120400,891.027950
151.763200,891.794000
151.763200,891.794000
152.105220,892.733700
152.105220,892.733700
152.748020,893.499760
152.748020,893.499760
153.614040,893.999760
153.614040,893.999760
154.256840,894.765800
154.256840,894.765800
154.598860,895.705500
154.940890,896.645200
154.940890,896.645200
155.583680,897.411250
155.583680,897.411250
156.449700,897.911250
156.449700,897.911250
157.092500,898.677300
157.092500,898.677300
157.434520,899.617000
157.434520,899.617000
158.077320,900.383060
158.077320,900.383060
158.419340,901.322750
158.419340,901.322750
158.419340,902.322750
158.419340,903.322750
158.419340,903.322750
158.761370,904.262450
158.761370,904.262450
159.404160,905.028500
159.404160,905.028500
159.746190,905.968200
159.746190,905.968200
160.388980,906.734250
160.388980,906.734250
161.255000,907.234250
161.255000,907.234250
161.897800,908.000300
161.897800,908.000300
162.239820,908.940000
162.581850,909.879700
162.581850,909.879700
163.224640,910.645750
163.224640,910.645750
164.090670,911.145750
164.090670,911.145750
164.733460,911.911800
164.733460,911.911800
165.599490,912.411800
165.599490,912.411800
166.584290,912.585450
166.584290,912.585450
167.450320,913.085450
167.450320,913.085450
168.093110,913.851500
168.735900,914.617550
168.735900,914.617550
169.601930,915.117550
169.601930,915.117550
170.586730,915.291200
170.586730,915.291200
171.452760,915.791200
171.452760,915.791200
172.095550,916.557250
172.095550,916.557250
172.961580,917.057250
172.961580,917.057250
173.604370,917.823300
173.604370,917.823300
173.946400,918.763000
174.288420,919.702700
174.288420,919.702700
174.931210,920.468750
174.931210,920.468750
175.797240,920.968750
175.797240,920.968750
176.440030,921.734800
176.440030,921.734800
176.782060,922.674500
176.782060,922.674500
177.424850,923.440550
177.424850,923.440550
177.766880,924.380250
177.766880,924.380250
177.766880,925.380250
177.766880,926.380250
177.766880,926.380250
178.108900,927.319950
178.108900,927.319950
178.751700,928.086000
178.751700,928.086000
179.093720,929.025700
179.435750,929.965400
179.435750,929.965400
180.078540,930.731450
180.078540,930.731450
180.420560,931.671140
180.420560,931.671140
180.420560,932.671140
180.420560,933.671140
180.420560,933.671140
180.762590,934.610840
180.762590,934.610840
181.405380,935.376900
181.405380,935.376900
181.747400,936.316600
181.747400,936.316600
182.390200,937.082640
182.390200,937.082640
183.256230,937.582640
183.256230,937.582640
183.899020,938.348700
183.899020,938.348700
184.241040,939.288400
184.583070,940.228100
184.583070,940.228100
185.225860,940.994140
185.225860,940.994140
186.091890,941.494140
186.091890,941.494140
186.734680,942.260200
186.734680,942.260200
187.600710,942.760200
187.600710,942.760200
188.585510,942.933840
188.585510,942.933840
189.451540,943.433840
189.451540,943.433840
190.094330,944.199900
190.737120,944.965940
190.737120,944.965940
191.603150,945.465940
191.603150,945.465940
192.587950,945.639600
192.587950,945.639600
193.453980,946.139600
193.453980,946.139600
194.096770,946.905640
194.096770,946.905640
194.962800,947.405640
194.962800,947.405640
195.605590,948.171700
195.605590,948.171700
195.947620,949.111400
196.289640,950.051100
196.289640,950.051100
196.932430,950.817140
196.932430,950.817140
197.798460,951.317140
197.798460,951.317140
198.441250,952.083200
198.441250,952.083200
199.307280,952.583200
199.307280,952.583200
200.292080,952.756840
200.292080,952.756840
201.158110,953.256840
201.158110,953.256840
201.800900,954.022900
202.443700,954.788940
202.443700,954.788940
203.309720,955.288940
203.309720,955.288940
204.294530,955.462600
204.294530,955.462600
205.160550,955.962600
205.160550,955.962600
206.145360,956.136200
206.145360,956.136200
207.130160,955.962600
207.130160,955.962600
208.114960,956.136200
208.114960,956.136200
208.980990,956.636200
209.847020,957.136200
209.847020,957.136200
210.831820,957.309900
210.831820,957.309900
211.816620,957.136200
211.816620,957.136200
212.801420,957.309900
212.801420,957.309900
213.667450,957.809900
213.667450,957.809900
214.652250,957.983500
214.652250,957.983500
215.518280,958.483500
215.518280,958.483500
216.161070,959.249600
216.803860,960.015600
216.803860,960.015600
217.669890,960.515600
217.669890,960.515600
218.654700,960.689300
218.654700,960.689300
219.520720,961.189300
219.520720,961.189300
220.163510,961.955300
220.163510,961.955300
221.029540,962.455300
221.029540,962.455300
221.672330,963.221400
221.672330,963.221400
222.014360,964.161100
222.356380,965.100770
222.356380,965.100770
222.999180,965.866800
222.999180,965.866800
223.865200,966.366800
223.865200,966.366800
224.508000,967.132900
225.150790,967.898900
225.150790,967.898900
226.016820,968.398900
226.016820,968.398900
226.659600,969.165000
226.659600,969.165000
227.001630,970.104700
227.343660,971.044400
227.343660,971.044400
227.986450,971.810400
227.986450,971.810400
228.852480,972.310400
228.852480,972.310400
229.495270,973.076500
229.495270,973.076500
230.361300,973.576500
230.361300,973.576500
231.346100,973.750100
231.346100,973.750100
232.212130,974.250100
232.212130,974.250100
232.854920,975.016200
233.497710,975.782200
233.497710,975.782200
234.363740,976.282200
234.363740,976.282200
235.348540,976.455900
235.348540,976.455900
236.214570,976.955900
236.214570,976.955900
237.199370,977.129500
237.199370,977.129500
238.184170,976.955900
238.184170,976.955900
239.168980,977.129500
239.168980,977.129500
240.035000,977.629500
240.901030,978.129500
240.901030,978.129500
241.885830,978.303160
241.885830,978.303160
242.870640,978.129500
242.870640,978.129500
243.855440,978.303160
243.855440,978.303160
244.721470,978.803160
244.721470,978.803160
245.706270,978.976800
245.706270,978.976800
246.572300,979.476800
246.572300,979.476800
247.215090,980.242860
247.857880,981.008900
247.857880,981.008900
248.723900,981.508900
248.723900,981.508900
249.708710,981.682560
249.708710,981.682560
250.574740,982.182560
250.574740,982.182560
251.217530,982.948600
251.217530,982.948600
252.083560,983.448600
252.083560,983.448600
252.726350,984.214660
252.726350,984.214660
253.068370,985.154360
253.410400,986.094060
253.410400,986.094060
254.053190,986.860100
254.053190,986.860100
254.919220,987.360100
254.919220,987.360100
255.562010,988.126160
255.562010,988.126160
256.428040,988.626160
256.428040,988.626160
257.412840,988.799800
257.412840,988.799800
258.278870,989.299800
258.278870,989.299800
258.921660,990.065860
259.564450,990.831900
259.564450,990.831900
260.430480,991.331900
260.430480,991.331900
261.415280,991.505550
261.415280,991.505550
262.281300,992.005550
262.281300,992.005550
262.924100,992.771600
262.924100,992.771600
263.790130,993.271600
263.790130,993.271600
264.432920,994.037660
264.432920,994.037660
264.774930,994.977360
265.116940,995.917050
265.116940,995.917050
265.759740,996.683100
265.759740,996.683100
266.625760,997.183100
266.625760,997.183100
267.268550,997.949160
267.268550,997.949160
267.610570,998.888850
267.610570,998.888850
268.253360,999.654900
268.253360,999.654900
268.595370,1000.594600
268.595370,1000.594600
268.595370,1001.594600
268.595370,1002.594600
268.595370,1002.594600
268.937380,1003.534300
268.937380,1003.534300
269.580170,1004.300350
269.580170,1004.300350
269.922180,1005.240050
270.264200,1006.179750
270.264200,1006.179750
270.906980,1006.945800
270.906980,1006.945800
271.249000,1007.885500
271.249000,1007.885500
271.249000,1008.885500
271.249000,1009.885500
271.249000,1009.885500
271.591000,1010.825200
271.591000,1010.825200
272.233800,1011.591250
272.233800,1011.591250
272.575800,1012.530940
272.575800,1012.530940
273.218600,1013.297000
273.218600,1013.297000
274.084630,1013.797000
274.084630,1013.797000
274.727420,1014.563050
274.727420,1014.563050
275.069430,1015.502750
275.411440,1016.442440
275.411440,1016.442440
276.054230,1017.208500
276.054230,1017.208500
276.920260,1017.708500
276.920260,1017.708500
277.563050,1018.474550
277.563050,1018.474550
278.429080,1018.974550
278.429080,1018.974550
279.413880,1019.148200
279.413880,1019.148200
280.279900,1019.648200
280.279900,1019.648200
280.922700,1020.414250
281.565500,1021.180300
281.565500,1021.180300
282.431520,1021.680300
282.431520,1021.680300
283.416320,1021.853940
283.416320,1021.853940
284.282350,1022.353940
284.282350,1022.353940
284.925140,1023.120000
284.925140,1023.120000
285.791170,1023.620000
285.791170,1023.620000
286.433960,1024.386000
286.433960,1024.386000
286.775970,1025.325700
287.117980,1026.265400
287.117980,1026.265400
287.760770,1027.031400
287.760770,1027.031400
288.626800,1027.531400
288.626800,1027.531400
289.269600,1028.297400
289.269600,1028.297400
289.611600,1029.237000
289.611600,1029.237000
290.254400,1030.003000
290.254400,1030.003000
290.596400,1030.942700
290.596400,1030.942700
290.596400,1031.942700
290.596400,1032.942700
290.596400,1032.942700
290.938420,1033.882400
290.938420,1033.882400
291.581200,1034.648400
291.581200,1034.648400
291.923220,1035.588100
291.923220,1035.588100
292.566000,1036.354100
292.566000,1036.354100
293.432040,1036.854100
293.432040,1036.854100
294.074830,1037.620100
294.074830,1037.620100
294.416840,1038.559800
294.758850,1039.499500
294.758850,1039.499500
295.401640,1040.265500
295.401640,1040.265500
296.267670,1040.765500
296.267670,1040.765500
296.910460,1041.531500
296.910460,1041.531500
297.252470,1042.471200
297.252470,1042.471200
297.895260,1043.237200
297.895260,1043.237200
298.237270,1044.176900
298.237270,1044.176900
298.237270,1045.176900
298.237270,1046.176900
298.237270,1046.176900
298.579280,1047.116600
298.579280,1047.116600
299.222080,1047.882600
299.222080,1047.882600
299.564100,1048.822300
299.564100,1048.822300
299.564100,1049.822300
299.564100,1049.822300
299.906100,1050.762000
299.906100,1050.762000
299.906100,1051.762000
299.906100,1051.762000
299.564100,1052.701700
299.222080,1053.641400
299.222080,1053.641400
299.222080,1054.641400
299.222080,1054.641400
299.564100,1055.581000
299.564100,1055.581000
299.564100,1056.581000
299.564100,1057.581000
299.564100,1057.581000
299.906100,1058.520800
299.906100,1058.520800
299.906100,1059.520800
299.906100,1059.520800
299.564100,1060.460400
299.222080,1061.400100
299.222080,1061.400100
299.222080,1062.400100
299.222080,1062.400100
299.564100,1063.339800
299.564100,1063.339800
299.564100,1064.339800
299.564100,1064.339800
299.906100,1065.279500
299.906100,1065.279500
300.548900,1066.045500
300.548900,1066.045500
300.890900,1066.985200
300.890900,1066.985200
300.890900,1067.985200
300.890900,1068.985200
300.890900,1068.985200
301.232900,1069.924900
301.232900,1069.924900
301.875700,1070.690900
301.875700,1070.690900
302.217700,1071.630600
302.217700,1071.630600
302.860500,1072.396600
302.860500,1072.396600
303.726530,1072.896600
303.726530,1072.896600
304.369320,1073.662600
304.369320,1073.662600
304.711330,1074.602300
305.053340,1075.542000
305.053340,1075.542000
305.696140,1076.308000
305.696140,1076.308000
306.562160,1076.808000
306.562160,1076.808000
307.204960,1077.574000
307.204960,1077.574000
307.546970,1078.513700
307.546970,1078.513700
308.189760,1079.279700
308.189760,1079.279700
308.531770,1080.219400
308.531770,1080.219400
308.531770,1081.219400
308.531770,1082.219400
308.531770,1082.219400
308.873780,1083.159000
308.873780,1083.159000
309.516570,1083.925000
309.516570,1083.925000
309.858580,1084.864700
310.200600,1085.804400
310.200600,1085.804400
310.843380,1086.570400
310.843380,1086.570400
311.185400,1087.510100
311.185400,1087.510100
311.185400,1088.510100
311.185400,1089.510100
311.185400,1089.510100
311.527400,1090.449800
311.527400,1090.449800
312.170200,1091.215800
312.170200,1091.215800
312.512200,1092.155500
312.512200,1092.155500
313.155000,1092.921500
313.155000,1092.921500
314.021030,1093.421500
314.021030,1093.421500
314.663820,1094.187500
314.663820,1094.187500
315.005830,1095.127200
315.347840,1096.066900
315.347840,1096.066900
315.990630,1096.832900
315.990630,1096.832900
316.856660,1097.332900
316.856660,1097.332900
317.499450,1098.098900
317.499450,1098.098900
317.841460,1099.038600
317.841460,1099.038600
318.484250,1099.804600
318.484250,1099.804600
318.826260,1100.744300
318.826260,1100.744300
318.826260,1101.744300
318.826260,1102.744300
318.826260,1102.744300
319.168270,1103.684000
319.168270,1103.684000
319.811070,1104.450000
319.811070,1104.450000
320.153080,1105.389600
320.153080,1105.389600
320.153080,1106.389600
320.153080,1106.389600
320.495100,1107.329300
320.495100,1107.329300
320.495100,1108.329300
320.495100,1108.329300
320.153080,1109.269000
319.811070,1110.208700
319.811070,1110.208700
319.811070,1111.208700
319.811070,1111.208700
320.153080,1112.148400
320.153080,1112.148400
320.153080,1113.148400
320.153080,1114.148400
320.153080,1114.148400
320.495100,1115.088100
320.495100,1115.088100
320.495100,1116.088100
320.495100,1116.088100
320.153080,1117.027800
319.811070,1117.967500
319.811070,1117.967500
319.811070,1118.967500
319.811070,1118.967500
320.153080,1119.907200
320.153080,1119.907200
320.153080,1120.907200
320.153080,1120.907200
320.495100,1121.846900
320.495100,1121.846900
321.137880,1122.612900
321.137880,1122.612900
321.479900,1123.552600
321.479900,1123.552600
321.479900,1124.552600
321.479900,1125.552600
321.479900,1125.552600
321.821900,1126.492300
321.821900,1126.492300
322.464700,1127.258300
322.464700,1127.258300
322.806700,1128.198000
322.806700,1128.198000
323.449500,1128.964000
323.449500,1128.964000
324.315520,1129.464000
324.315520,1129.464000
324.958300,1130.230000
324.958300,1130.230000
325.300320,1131.169700
325.642330,1132.109400
325.642330,1132.109400
326.285130,1132.875400
326.285130,1132.875400
327.151150,1133.375400
327.151150,1133.375400
327.793950,1134.141400
327.793950,1134.141400
328.135960,1135.081000
328.135960,1135.081000
328.778750,1135.847000
328.778750,1135.847000
329.120760,1136.786700
329.120760,1136.786700
329.120760,1137.786700
329.120760,1138.786700
329.120760,1138.786700
329.462770,1139.726400
329.462770,1139.726400
330.105560,1140.492400
330.105560,1140.492400
330.447570,1141.432100
330.447570,1141.432100
331.090360,1142.198100
331.090360,1142.198100
331.956400,1142.698100
331.956400,1142.698100
332.599180,1143.464100
332.599180,1143.464100
332.941200,1144.403800
333.283200,1145.343500
333.283200,1145.343500
333.926000,1146.109500
333.926000,1146.109500
334.792020,1146.609500
334.792020,1146.609500
335.434800,1147.375500
335.434800,1147.375500
336.300840,1147.875500
336.300840,1147.875500
337.285640,1148.049200
337.285640,1148.049200
338.151670,1148.549200
338.151670,1148.549200
338.794460,1149.315200
339.437260,1150.081200
339.437260,1150.081200
340.303280,1150.581200
340.303280,1150.581200
341.288100,1150.754900
341.288100,1150.754900
342.154100,1151.254900
342.154100,1151.254900
342.796900,1152.020900
342.796900,1152.020900
343.662930,1152.520900
343.662930,1152.520900
344.305730,1153.286900
344.305730,1153.286900
344.647740,1154.226600
344.989750,1155.166300
344.989750,1155.166300
345.632540,1155.932300
345.632540,1155.932300
346.498570,1156.432300
346.498570,1156.432300
347.141360,1157.198200
347.141360,1157.198200
347.483370,1158.138000
347.483370,1158.138000
348.126160,1158.903900
348.126160,1158.903900
348.468170,1159.843600
348.468170,1159.843600
348.468170,1160.843600
348.468170,1161.843600
348.468170,1161.843600
348.810180,1162.783300
348.810180,1162.783300
349.452970,1163.549300
349.452970,1163.549300
349.794980,1164.489000
350.137000,1165.428700
350.137000,1165.428700
350.779800,1166.194700
350.779800,1166.194700
351.121800,1167.134400
351.121800,1167.134400
351.121800,1168.134400
351.121800,1169.134400
351.121800,1169.134400
351.463800,1170.074100
351.463800,1170.074100
352.106600,1170.840100
352.106600,1170.840100
352.448600,1171.779800
352.448600,1171.779800
353.091400,1172.545800
353.091400,1172.545800
353.957430,1173.045800
353.957430,1173.045800
354.600220,1173.811800
354.600220,1173.811800
354.942230,1174.751500
355.284240,1175.691200
355.284240,1175.691200
355.927030,1176.457200
355.927030,1176.457200
356.793060,1176.957200
356.793060,1176.957200
357.435850,1177.723100
357.435850,1177.723100
358.301880,1178.223100
358.301880,1178.223100
359.286680,1178.396900
359.286680,1178.396900
360.152700,1178.896900
360.152700,1178.896900
360.795500,1179.662800
361.438300,1180.428800
361.438300,1180.428800
362.304320,1180.928800
362.304320,1180.928800
363.289120,1181.102500
363.289120,1181.102500
364.155150,1181.602500
364.155150,1181.602500
364.797940,1182.368500
364.797940,1182.368500
365.663970,1182.868500
365.663970,1182.868500
366.306760,1183.634500
366.306760,1183.634500
366.648770,1184.574200
366.990780,1185.513900
366.990780,1185.513900
367.633580,1186.279900
367.633580,1186.279900
368.499600,1186.779900
368.499600,1186.779900
369.142400,1187.545900
369.142400,1187.545900
370.008420,1188.045900
370.008420,1188.045900
370.993230,1188.219600
370.993230,1188.219600
371.859250,1188.719600
371.859250,1188.719600
372.502040,1189.485600
373.144840,1190.251600
373.144840,1190.251600
374.010860,1190.751600
374.010860,1190.751600
374.995670,1190.925300
374.995670,1190.925300
375.861700,1191.425300
375.861700,1191.425300
376.846500,1191.599000
376.846500,1191.599000
377.831300,1191.425300
377.831300,1191.425300
378.816100,1191.599000
378.816100,1191.599000
379.682130,1192.099000
380.548160,1192.599000
380.548160,1192.599000
381.532960,1192.772700
381.532960,1192.772700
382.517760,1192.599000
382.517760,1192.599000
383.502560,1192.772700
383.502560,1192.772700
384.368600,1193.272700
384.368600,1193.272700
385.353400,1193.446400
385.353400,1193.446400
386.219420,1193.946400
386.219420,1193.946400
386.862200,1194.712400
387.505000,1195.478400
387.505000,1195.478400
388.371030,1195.978400
388.371030,1195.978400
389.355830,1196.152100
389.355830,1196.152100
390.221860,1196.652100
390.221860,1196.652100
390.864650,1197.418100
390.864650,1197.418100
391.730680,1197.918100
391.730680,1197.918100
392.373470,1198.684100
392.373470,1198.684100
392.715480,1199.623800
393.057500,1200.563500
393.057500,1200.563500
393.700300,1201.329500
393.700300,1201.329500
394.566300,1201.829500
394.566300,1201.829500
395.209100,1202.595500
395.851900,1203.361500
395.851900,1203.361500
396.717930,1203.861500
396.717930,1203.861500
397.360720,1204.627400
397.360720,1204.627400
397.702730,1205.567100
398.044740,1206.506800
398.044740,1206.506800
398.687530,1207.272800
398.687530,1207.272800
399.553560,1207.772800
399.553560,1207.772800
400.196350,1208.538800
400.196350,1208.538800
401.062380,1209.038800
401.062380,1209.038800
402.047180,1209.212500
402.047180,1209.212500
402.913200,1209.712500
402.913200,1209.712500
403.556000,1210.478500
404.198800,1211.244500
404.198800,1211.244500
405.064820,1211.744500
405.064820,1211.744500
406.049620,1211.918200
406.049620,1211.918200
406.915650,1212.418200
406.915650,1212.418200
407.900450,1212.591900
407.900450,1212.591900
408.885250,1212.418200
408.885250,1212.418200
409.870060,1212.591900
409.870060,1212.591900
410.736080,1213.091900
411.602100,1213.591900
411.602100,1213.591900
412.586900,1213.765600
412.586900,1213.765600
413.571720,1213.591900
413.571720,1213.591900
414.556520,1213.765600
414.556520,1213.765600
415.422550,1214.265600
415.422550,1214.265600
416.407350,1214.439300
416.407350,1214.439300
417.273380,1214.939300
417.273380,1214.939300
417.916170,1215.705300
418.558960,1216.471300
418.558960,1216.471300
419.425000,1216.971300
419.425000,1216.971300
420.409800,1217.145000
420.409800,1217.145000
421.275820,1217.645000
421.275820,1217.645000
421.918600,1218.411000
421.918600,1218.411000
422.784640,1218.911000
422.784640,1218.911000
423.427430,1219.677000
423.427430,1219.677000
423.769440,1220.616700
424.111450,1221.556400
424.111450,1221.556400
424.754240,1222.322400
424.754240,1222.322400
425.620270,1222.822400
425.620270,1222.822400
426.263060,1223.588400
426.263060,1223.588400
427.129100,1224.088400
427.129100,1224.088400
428.113900,1224.262100
428.113900,1224.262100
428.979920,1224.762100
428.979920,1224.762100
429.622700,1225.528100
430.265500,1226.294100
430.265500,1226.294100
431.131530,1226.794100
431.131530,1226.794100
432.116330,1226.967800
432.116330,1226.967800
432.982360,1227.467800
432.982360,1227.467800
433.625150,1228.233800
433.625150,1228.233800
434.491180,1228.733800
434.491180,1228.733800
435.133970,1229.499800
435.133970,1229.499800
435.475980,1230.439500
435.818000,1231.379200
435.818000,1231.379200
436.460800,1232.145100
436.460800,1232.145100
437.326800,1232.645100
437.326800,1232.645100
437.969600,1233.411100
437.969600,1233.411100
438.311600,1234.350800
438.311600,1234.350800
438.954400,1235.116800
438.954400,1235.116800
439.296420,1236.056500
439.296420,1236.056500
439.296420,1237.056500
439.296420,1238.056500
439.296420,1238.056500
439.638430,1238.996200
439.638430,1238.996200
440.281220,1239.762200
440.281220,1239.762200
440.623230,1240.701900
440.965240,1241.641600
440.965240,1241.641600
441.608030,1242.407600
441.608030,1242.407600
441.950040,1243.347300
441.950040,1243.347300
441.950040,1244.347300
441.950040,1245.347300
441.950040,1245.347300
442.292050,1246.287000
442.292050,1246.287000
442.934840,1247.053000
442.934840,1247.053000
443.276860,1247.992700
443.276860,1247.992700
443.919650,1248.758700
443.919650,1248.758700
444.785680,1249.258700
444.785680,1249.258700
445.428470,1250.024700
445.428470,1250.024700
445.770480,1250.964400
446.112500,1251.904000
446.112500,1251.904000
446.755280,1252.670000
446.755280,1252.670000
447.621300,1253.170000
447.621300,1253.170000
448.264100,1253.936000
448.264100,1253.936000
449.130130,1254.436000
449.130130,1254.436000
450.114930,1254.609700
450.114930,1254.609700
450.980960,1255.109700
450.980960,1255.109700
451.623750,1255.875700
452.266540,1256.641700
452.266540,1256.641700
453.132570,1257.141700
453.132570,1257.141700
454.117370,1257.315400
454.117370,1257.315400
454.983400,1257.815400
454.983400,1257.815400
455.626200,1258.581400
455.626200,1258.581400
456.492220,1259.081400
456.492220,1259.081400
457.135000,1259.847400
457.135000,1259.847400
457.477020,1260.787100
457.819030,1261.726800
457.819030,1261.726800
458.461820,1262.492800
458.461820,1262.492800
459.327850,1262.992800
459.327850,1262.992800
459.970640,1263.758800
459.970640,1263.758800
460.836670,1264.258800
460.836670,1264.258800
461.821470,1264.432500
461.821470,1264.432500
462.687500,1264.932500
462.687500,1264.932500
463.330300,1265.698500
463.973080,1266.464500
463.973080,1266.464500
464.839100,1266.964500
464.839100,1266.964500
465.823900,1267.138200
465.823900,1267.138200
466.689940,1267.638200
466.689940,1267.638200
467.674740,1267.811900
467.674740,1267.811900
468.659550,1267.638200
468.659550,1267.638200
469.644350,1267.811900
469.644350,1267.811900
470.510380,1268.311900
471.376400,1268.811900
471.376400,1268.811900
472.361200,1268.985600
472.361200,1268.985600
473.346000,1268.811900
473.346000,1268.811900
474.330800,1268.985600
474.330800,1268.985600
475.196840,1269.485600
475.196840,1269.485600
476.181640,1269.659300
476.181640,1269.659300
477.047670,1270.159300
477.047670,1270.159300
477.690460,1270.925300
478.333250,1271.691300
478.333250,1271.691300
479.199280,1272.191300
479.199280,1272.191300
480.184080,1272.365000
480.184080,1272.365000
481.050100,1272.865000
481.050100,1272.865000
481.692900,1273.631000
481.692900,1273.631000
482.558930,1274.131000
482.558930,1274.131000
483.201720,1274.897000
483.201720,1274.897000
483.543730,1275.836700
483.885740,1276.776400
483.885740,1276.776400
484.528530,1277.542400
484.528530,1277.542400
485.394560,1278.042400
485.394560,1278.042400
486.037350,1278.808300
486.680150,1279.574300
486.680150,1279.574300
487.546170,1280.074300
487.546170,1280.074300
488.188960,1280.840300
488.188960,1280.840300
488.530980,1281.780000
488.873000,1282.719700
488.873000,1282.719700
489.515780,1283.485700
489.515780,1283.485700
490.381800,1283.985700
490.381800,1283.985700
491.024600,1284.751700
491.024600,1284.751700
491.890630,1285.251700
491.890630,1285.251700
492.875430,1285.425400
492.875430,1285.425400
493.741460,1285.925400
493.741460,1285.925400
494.384250,1286.691400
495.027040,1287.457400
495.027040,1287.457400
495.893070,1287.957400
495.893070,1287.957400
496.877870,1288.131100
496.877870,1288.131100
497.743900,1288.631100
497.743900,1288.631100
498.728700,1288.804800
498.728700,1288.804800
499.713500,1288.631100
499.713500,1288.631100
500.698300,1288.804800
500.698300,1288.804800
501.564330,1289.304800
502.430360,1289.804800
502.430360,1289.804800
503.415160,1289.978500
503.415160,1289.978500
504.399960,1289.804800
504.399960,1289.804800
505.384770,1289.978500
505.384770,1289.978500
506.250800,1290.478500
506.250800,1290.478500
507.235600,1290.652200
507.235600,1290.652200
508.101620,1291.152200
508.101620,1291.152200
508.744420,1291.918200
509.387200,1292.684200
509.387200,1292.684200
510.253230,1293.184200
510.253230,1293.184200
511.238040,1293.357900
511.238040,1293.357900
512.104060,1293.857900
512.104060,1293.857900
513.088870,1294.031600
513.088870,1294.031600
514.073670,1293.857900
514.073670,1293.857900
515.058500,1294.031600
515.058500,1294.031600
515.924500,1294.531600
516.790500,1295.031600
516.790500,1295.031600
517.775300,1295.205300
517.775300,1295.205300
518.760130,1295.031600
518.760130,1295.031600
519.744930,1295.205300
519.744930,1295.205300
520.729740,1295.031600
520.729740,1295.031600
521.595760,1294.531600
521.595760,1294.531600
522.580570,1294.357900
522.580570,1294.357900
523.565370,1294.531600
524.550200,1294.705300
524.550200,1294.705300
525.535000,1294.531600
525.535000,1294.531600
526.401000,1294.031600
526.401000,1294.031600
527.385800,1293.857900
527.385800,1293.857900
528.370600,1294.031600
528.370600,1294.031600
529.355400,1293.857900
529.355400,1293.857900
530.340200,1294.031600
530.340200,1294.031600
531.206240,1294.531600
532.072270,1295.031600
532.072270,1295.031600
533.057070,1295.205300
533.057070,1295.205300
534.041900,1295.031600
534.041900,1295.031600
535.026700,1295.205300
535.026700,1295.205300
535.892700,1295.705300
535.892700,1295.705300
536.877500,1295.879000
536.877500,1295.879000
537.743500,1296.379000
537.743500,1296.379000
538.386300,1297.145000
539.029050,1297.911000
539.029050,1297.911000
539.895100,1298.411000
539.895100,1298.411000
540.879900,1298.584700
540.879900,1298.584700
541.745900,1299.084700
542.611940,1299.584700
542.611940,1299.584700
543.596740,1299.758400
543.596740,1299.758400
544.462770,1300.258400
544.462770,1300.258400
545.105500,1301.024400
545.748300,1301.790400
545.748300,1301.790400
546.614300,1302.290400
546.614300,1302.290400
547.599100,1302.464100
547.599100,1302.464100
548.465150,1302.964100
548.465150,1302.964100
549.449950,1303.137800
549.449950,1303.137800
550.434750,1302.964100
550.434750,1302.964100
551.419560,1303.137800
551.419560,1303.137800
552.285600,1303.637800
553.151600,1304.137800
553.151600,1304.137800
554.136400,1304.311500
554.136400,1304.311500
555.121200,1304.137800
555.121200,1304.137800
556.106000,1304.311500
556.106000,1304.311500
557.090800,1304.137800
557.090800,1304.137800
557.956850,1303.637800
557.956850,1303.637800
558.941650,1303.464100
558.941650,1303.464100
559.926450,1303.637800
560.911250,1303.811500
560.911250,1303.811500
561.896060,1303.637800
561.896060,1303.637800
562.762100,1303.137800
562.762100,1303.137800
563.746900,1302.964100
563.746900,1302.964100
564.731700,1303.137800
564.731700,1303.137800
565.716500,1302.964100
565.716500,1302.964100
566.701300,1303.137800
566.701300,1303.137800
567.567300,1303.637800
568.433350,1304.137800
568.433350,1304.137800
569.418150,1304.311500
569.418150,1304.311500
570.402950,1304.137800
570.402950,1304.137800
571.387760,1304.311500
571.387760,1304.311500
572.253800,1304.811500
572.253800,1304.811500
573.238600,1304.985200
573.238600,1304.985200
574.104600,1305.485200
574.104600,1305.485200
574.747400,1306.251200
575.390140,1307.017200
575.390140,1307.017200
576.256160,1307.517200
576.256160,1307.517200
577.240970,1307.690900
577.240970,1307.690900
578.107000,1308.190900
578.107000,1308.190900
579.091800,1308.364600
579.091800,1308.364600
580.076600,1308.190900
580.076600,1308.190900
581.061400,1308.364600
581.061400,1308.364600
581.927400,1308.864600
582.793460,1309.364600
582.793460,1309.364600
583.778260,1309.538300
583.778260,1309.538300
584.763060,1309.364600
584.763060,1309.364600
585.747860,1309.538300
585.747860,1309.538300
586.613900,1310.038300
586.613900,1310.038300
587.598700,1310.212000
587.598700,1310.212000
588.464700,1310.712000
588.464700,1310.712000
589.107500,1311.478000
589.750240,1312.244000
589.750240,1312.244000
590.616300,1312.744000
590.616300,1312.744000
591.601100,1312.917700
591.601100,1312.917700
592.467100,1313.417700
592.467100,1313.417700
593.109860,1314.183700
593.109860,1314.183700
593.975900,1314.683700
593.975900,1314.683700
594.618650,1315.449700
594.618650,1315.449700
594.960700,1316.389400
595.302730,1317.329100
595.302730,1317.329100
595.945500,1318.095100
595.945500,1318.095100
596.811500,1318.595100
596.811500,1318.595100
597.454300,1319.361100
598.097050,1320.127100
598.097050,1320.127100
598.963100,1320.627100
598.963100,1320.627100
599.605830,1321.393100
599.605830,1321.393100
599.947900,1322.332800
600.289900,1323.272500
600.289900,1323.272500
600.932700,1324.038500
600.932700,1324.038500
601.798700,1324.538500
601.798700,1324.538500
602.441470,1325.304400
602.441470,1325.304400
603.307500,1325.804400
603.307500,1325.804400
604.292300,1325.978100
604.292300,1325.978100
605.158300,1326.478100
605.158300,1326.478100
605.801100,1327.244100
606.443850,1328.010100
606.443850,1328.010100
607.309900,1328.510100
607.309900,1328.510100
608.294700,1328.683800
608.294700,1328.683800
609.160700,1329.183800
609.160700,1329.183800
610.145500,1329.357500
610.145500,1329.357500
611.130300,1329.183800
611.130300,1329.183800
612.115100,1329.357500
612.115100,1329.357500
612.981140,1329.857500
613.847170,1330.357500
613.847170,1330.357500
614.832000,1330.531300
614.832000,1330.531300
615.816800,1330.357500
615.816800,1330.357500
616.801600,1330.531300
616.801600,1330.531300
617.667600,1331.031300
617.667600,1331.031300
618.652400,1331.205000
618.652400,1331.205000
619.518430,1331.705000
619.518430,1331.705000
620.161200,1332.471000
620.803960,1333.236900
620.803960,1333.236900
621.670000,1333.736900
621.670000,1333.736900
622.654800,1333.910600
622.654800,1333.910600
623.520800,1334.410600
623.520800,1334.410600
624.163600,1335.176600
624.163600,1335.176600
625.029600,1335.676600
625.029600,1335.676600
625.672360,1336.442600
625.672360,1336.442600
626.014400,1337.382300
626.356450,1338.322000
626.356450,1338.322000
626.999200,1339.088000
626.999200,1339.088000
627.865230,1339.588000
627.865230,1339.588000
628.508000,1340.354000
628.508000,1340.354000
629.374000,1340.854000
629.374000,1340.854000
630.358800,1341.027700
630.358800,1341.027700
631.224850,1341.527700
631.224850,1341.527700
631.867600,1342.293700
632.510400,1343.059700
632.510400,1343.059700
633.376400,1343.559700
633.376400,1343.559700
634.361200,1343.733400
634.361200,1343.733400
635.227230,1344.233400
635.227230,1344.233400
635.870000,1344.999400
635.870000,1344.999400
636.736000,1345.499400
636.736000,1345.499400
637.378800,1346.265400
637.378800,1346.265400
637.720800,1347.205100
638.062870,1348.144800
638.062870,1348.144800
638.705600,1348.910800
638.705600,1348.910800
639.571660,1349.410800
639.571660,1349.410800
640.214400,1350.176800
640.214400,1350.176800
640.556460,1351.116500
640.556460,1351.116500
641.199200,1351.882400
641.199200,1351.882400
641.541260,1352.822100
641.541260,1352.822100
641.541260,1353.822100
641.541260,1354.822100
641.541260,1354.822100
641.883300,1355.761800
641.883300,1355.761800
642.526060,1356.527800
642.526060,1356.527800
642.868100,1357.467500
643.210140,1358.407200
643.210140,1358.407200
643.852900,1359.173200
643.852900,1359.173200
644.194950,1360.112900
644.194950,1360.112900
644.194950,1361.112900
644.194950,1362.112900
644.194950,1362.112900
644.537000,1363.052600
644.537000,1363.052600
645.179750,1363.818600
645.179750,1363.818600
645.521800,1364.758300
645.521800,1364.758300
646.164550,1365.524300
646.164550,1365.524300
647.030600,1366.024300
647.030600,1366.024300
647.673340,1366.790300
647.673340,1366.790300
648.015400,1367.730000
648.357400,1368.669700
648.357400,1368.669700
649.000200,1369.435700
649.000200,1369.435700
649.866200,1369.935700
649.866200,1369.935700
650.509000,1370.701700
650.509000,1370.701700
651.375000,1371.201700
651.375000,1371.201700
652.359800,1371.375400
652.359800,1371.375400
653.225800,1371.875400
653.225800,1371.875400
653.868600,1372.641400
654.511350,1373.407300
654.511350,1373.407300
655.377400,1373.907300
655.377400,1373.907300
656.362200,1374.081000
656.362200,1374.081000
657.228200,1374.581000
657.228200,1374.581000
657.871000,1375.347000
657.871000,1375.347000
658.737000,1375.847000
658.737000,1375.847000
659.379760,1376.613000
659.379760,1376.613000
659.721800,1377.552700
660.063840,1378.492400
660.063840,1378.492400
660.706600,1379.258400
660.706600,1379.258400
661.572630,1379.758400
661.572630,1379.758400
662.215400,1380.524400
662.858150,1381.290400
662.858150,1381.290400
663.724200,1381.790400
663.724200,1381.790400
664.366940,1382.556400
664.366940,1382.556400
664.709000,1383.496100
665.051000,1384.435800
665.051000,1384.435800
665.693800,1385.201800
665.693800,1385.201800
666.559800,1385.701800
666.559800,1385.701800
667.202600,1386.467800
667.202600,1386.467800
668.068600,1386.967800
668.068600,1386.967800
669.053400,1387.141500
669.053400,1387.141500
669.919430,1387.641500
669.919430,1387.641500
670.562200,1388.407500
671.204960,1389.173500
671.204960,1389.173500
672.071000,1389.673500
672.071000,1389.673500
673.055800,1389.847200
673.055800,1389.847200
673.921800,1390.347200
673.921800,1390.347200
674.564600,1391.113200
674.564600,1391.113200
675.430600,1391.613200
675.430600,1391.613200
676.073360,1392.379200
676.073360,1392.379200
676.415400,1393.318800
676.757450,1394.258500
676.757450,1394.258500
677.400200,1395.024500
677.400200,1395.024500
678.266240,1395.524500
678.266240,1395.524500
678.909000,1396.290500
678.909000,1396.290500
679.251040,1397.230200
679.251040,1397.230200
679.893800,1397.996200
679.893800,1397.996200
680.235840,1398.935900
680.235840,1398.935900
680.235840,1399.935900
680.235840,1400.935900
680.235840,1400.935900
680.577900,1401.875600
680.577900,1401.875600
681.220640,1402.641600
681.220640,1402.641600
681.562700,1403.581300
681.904700,1404.521000
681.904700,1404.521000
682.547500,1405.287000
682.547500,1405.287000
682.889500,1406.226700
682.889500,1406.226700
682.889500,1407.226700
682.889500,1408.226700
682.889500,1408.226700
683.231570,1409.166400
683.231570,1409.166400
683.874300,1409.932400
683.874300,1409.932400
684.216400,1410.872100
684.216400,1410.872100
684.859130,1411.638100
684.859130,1411.638100
685.725160,1412.138100
685.725160,1412.138100
686.367900,1412.904000
686.367900,1412.904000
686.709960,1413.843800
687.052000,1414.783400
687.052000,1414.783400
687.694760,1415.549400
687.694760,1415.549400
688.560800,1416.049400
688.560800,1416.049400
689.203550,1416.815400
689.203550,1416.815400
690.069600,1417.315400
690.069600,1417.315400
691.054400,1417.489100
691.054400,1417.489100
691.920400,1417.989100
691.920400,1417.989100
692.563200,1418.755100
693.205930,1419.521100
693.205930,1419.521100
694.071960,1420.021100
694.071960,1420.021100
695.056760,1420.194800
695.056760,1420.194800
695.922800,1420.694800
695.922800,1420.694800
696.565550,1421.460800
696.565550,1421.460800
697.431600,1421.960800
697.431600,1421.960800
698.074340,1422.726800
698.074340,1422.726800
698.416400,1423.666500
698.758400,1424.606200
698.758400,1424.606200
699.401200,1425.372200
699.401200,1425.372200
700.267200,1425.872200
700.267200,1425.872200
700.910000,1426.638200
700.910000,1426.638200
701.776000,1427.138200
701.776000,1427.138200
702.760800,1427.311900
702.760800,1427.311900
703.626830,1427.811900
703.626830,1427.811900
704.269600,1428.577900
704.912350,1429.343900
704.912350,1429.343900
705.778400,1429.843900
705.778400,1429.843900
706.763200,1430.017600
706.763200,1430.017600
707.629200,1430.517600
707.629200,1430.517600
708.614000,1430.691300
708.614000,1430.691300
709.598800,1430.517600
709.598800,1430.517600
710.583600,1430.691300
710.583600,1430.691300
711.449650,1431.191300
712.315700,1431.691300
712.315700,1431.691300
713.300500,1431.865000
713.300500,1431.865000
714.285300,1431.691300
714.285300,1431.691300
715.270100,1431.865000
715.270100,1431.865000
716.136100,1432.365000
716.136100,1432.365000
717.120900,1432.538700
717.120900,1432.538700
717.986940,1433.038700
717.986940,1433.038700
718.629700,1433.804700
719.272460,1434.570700
719.272460,1434.570700
720.138500,1435.070700
720.138500,1435.070700
721.123300,1435.244400
721.123300,1435.244400
721.989300,1435.744400
721.989300,1435.744400
722.632100,1436.510400
722.632100,1436.510400
723.498100,1437.010400
723.498100,1437.010400
724.140870,1437.776400
724.140870,1437.776400
724.482900,1438.716100
724.824950,1439.655800
724.824950,1439.655800
725.467700,1440.421800
725.467700,1440.421800
726.333740,1440.921800
726.333740,1440.921800
726.976500,1441.687700
727.619260,1442.453700
727.619260,1442.453700
728.485300,1442.953700
728.485300,1442.953700
729.128050,1443.719700
729.128050,1443.719700
729.470100,1444.659400
729.812130,1445.599100
729.812130,1445.599100
730.454900,1446.365100
730.454900,1446.365100
731.320900,1446.865100
731.320900,1446.865100
731.963700,1447.631100
731.963700,1447.631100
732.829700,1448.131100
732.829700,1448.131100
733.814500,1448.304800
733.814500,1448.304800
734.680540,1448.804800
734.680540,1448.804800
735.323300,1449.570800
735.966060,1450.336800
735.966060,1450.336800
736.832100,1450.836800
736.832100,1450.836800
737.816900,1451.010500
737.816900,1451.010500
738.682900,1451.510500
738.682900,1451.510500
739.667700,1451.684200
739.667700,1451.684200
740.652500,1451.510500
740.652500,1451.510500
741.637300,1451.684200
741.637300,1451.684200
742.503360,1452.184200
743.369400,1452.684200
743.369400,1452.684200
744.354200,1452.857900
744.354200,1452.857900
745.339000,1452.684200
745.339000,1452.684200
746.323800,1452.857900
746.323800,1452.857900
747.189800,1453.357900
747.189800,1453.357900
748.174600,1453.531600
748.174600,1453.531600
749.040650,1454.031600
749.040650,1454.031600
749.683400,1454.797600
750.326200,1455.563600
750.326200,1455.563600
751.192200,1456.063600
751.192200,1456.063600
752.177000,1456.237300
752.177000,1456.237300
753.043000,1456.737300
753.043000,1456.737300
754.027830,1456.911000
754.027830,1456.911000
755.012630,1456.737300
755.012630,1456.737300
755.997440,1456.911000
755.997440,1456.911000
756.863460,1457.411000
757.729500,1457.911000
757.729500,1457.911000
758.714300,1458.084700
758.714300,1458.084700
759.699100,1457.911000
759.699100,1457.911000
760.683900,1458.084700
760.683900,1458.084700
761.668700,1457.911000
761.668700,1457.911000
762.534700,1457.411000
762.534700,1457.411000
763.519530,1457.237300
763.519530,1457.237300
764.504330,1457.411000
765.489140,1457.584700
765.489140,1457.584700
766.473940,1457.411000
766.473940,1457.411000
767.339970,1456.911000
767.339970,1456.911000
768.324770,1456.737300
768.324770,1456.737300
769.309600,1456.911000
769.309600,1456.911000
770.294400,1456.737300
770.294400,1456.737300
771.279200,1456.911000
771.279200,1456.911000
772.145200,1457.411000
773.011200,1457.911000
773.011200,1457.911000
773.996030,1458.084700
773.996030,1458.084700
774.980830,1457.911000
774.980830,1457.911000
775.965640,1458.084700
775.965640,1458.084700
776.831670,1458.584700
776.831670,1458.584700
777.816470,1458.758400
777.816470,1458.758400
778.682500,1459.258400
778.682500,1459.258400
779.325260,1460.024400
779.968000,1460.790400
779.968000,1460.790400
780.834050,1461.290400
780.834050,1461.290400
781.818850,1461.464100
781.818850,1461.464100
782.684900,1461.964100
783.550900,1462.464100
783.550900,1462.464100
784.535700,1462.637800
784.535700,1462.637800
785.401730,1463.137800
785.401730,1463.137800
786.044500,1463.903800
786.687260,1464.669800
786.687260,1464.669800
787.553300,1465.169800
787.553300,1465.169800
788.538100,1465.343500
788.538100,1465.343500
789.404100,1465.843500
789.404100,1465.843500
790.388900,1466.017200
790.388900,1466.017200
791.373700,1465.843500
791.373700,1465.843500
792.358500,1466.017200
792.358500,1466.017200
793.224550,1466.517200
794.090600,1467.017200
794.090600,1467.017200
795.075400,1467.190900
795.075400,1467.190900
796.060200,1467.017200
796.060200,1467.017200
797.045000,1467.190900
797.045000,1467.190900
798.029800,1467.017200
798.029800,1467.017200
798.895800,1466.517200
798.895800,1466.517200
799.880600,1466.343500
799.880600,1466.343500
800.865400,1466.517200
801.850200,1466.690900
801.850200,1466.690900
802.835000,1466.517200
802.835000,1466.517200
803.701050,1466.017200
803.701050,1466.017200
804.685850,1465.843500
804.685850,1465.843500
805.670650,1466.017200
805.670650,1466.017200
806.655460,1465.843500
806.655460,1465.843500
807.640260,1466.017200
807.640260,1466.017200
808.506300,1466.517200
809.372300,1467.017200
809.372300,1467.017200
810.357100,1467.190900
810.357100,1467.190900
811.341900,1467.017200
811.341900,1467.017200
812.326700,1467.190900
812.326700,1467.190900
813.192750,1467.690900
813.192750,1467.690900
814.177550,1467.864600
814.177550,1467.864600
815.043600,1468.364600
815.043600,1468.364600
815.686340,1469.130600
816.329100,1469.896600
816.329100,1469.896600
817.195100,1470.396600
817.195100,1470.396600
818.179930,1470.570300
818.179930,1470.570300
819.045960,1471.070300
819.045960,1471.070300
820.030760,1471.244000
820.030760,1471.244000
821.015560,1471.070300
821.015560,1471.070300
822.000370,1471.244000
822.000370,1471.244000
822.866400,1471.744000
823.732400,1472.244000
823.732400,1472.244000
824.717200,1472.417700
824.717200,1472.417700
825.702000,1472.244000
825.702000,1472.244000
826.686800,1472.417700
826.686800,1472.417700
827.552860,1472.917700
827.552860,1472.917700
828.537660,1473.091400
828.537660,1473.091400
829.403700,1473.591400
829.403700,1473.591400
830.046450,1474.357400
830.689200,1475.123400
830.689200,1475.123400
831.555240,1475.623400
831.555240,1475.623400
832.540040,1475.797100
832.540040,1475.797100
833.406070,1476.297100
833.406070,1476.297100
834.048800,1477.063100
834.048800,1477.063100
834.914860,1477.563100
834.914860,1477.563100
835.557600,1478.329100
835.557600,1478.329100
835.899660,1479.268800
836.241700,1480.208500
836.241700,1480.208500
836.884460,1480.974500
836.884460,1480.974500
837.750500,1481.474500
837.750500,1481.474500
838.393250,1482.240500
839.036000,1483.006500
839.036000,1483.006500
839.902040,1483.506500
839.902040,1483.506500
840.544800,1484.272500
840.544800,1484.272500
840.886840,1485.212200
841.228900,1486.151900
841.228900,1486.151900
841.871640,1486.917800
841.871640,1486.917800
842.737700,1487.417800
842.737700,1487.417800
843.380430,1488.183800
843.380430,1488.183800
844.246460,1488.683800
844.246460,1488.683800
845.231260,1488.857500
845.231260,1488.857500
846.097300,1489.357500
846.097300,1489.357500
846.740050,1490.123500
847.382800,1490.889500
847.382800,1490.889500
848.248840,1491.389500
848.248840,1491.389500
849.233640,1491.563200
849.233640,1491.563200
850.099700,1492.063200
850.099700,1492.063200
851.084500,1492.236900
851.084500,1492.236900
852.069300,1492.063200
852.069300,1492.063200
853.054100,1492.236900
853.054100,1492.236900
853.920100,1492.736900
854.786130,1493.236900
854.786130,1493.236900
855.770940,1493.410600
855.770940,1493.410600
856.755740,1493.236900
856.755740,1493.236900
857.740540,1493.410600
857.740540,1493.410600
858.606570,1493.910600
858.606570,1493.910600
859.591400,1494.084400
859.591400,1494.084400
860.457400,1494.584400
860.457400,1494.584400
861.100160,1495.350300
861.742900,1496.116300
861.742900,1496.116300
862.608950,1496.616300
862.608950,1496.616300
863.593750,1496.790000
863.593750,1496.790000
864.459800,1497.290000
 "
/>
</svg>
