<svg xmlns="http://www.w3.org/2000/svg"
 viewBox="-3.526484 -3.526484 145.96928 77.58265"
>
<polyline
 fill="none" stroke="green" stroke-width="0.25%"
 points="
  0.000000,  0.000000
  0.500000,  0.866025
  0.500000,  0.866025
  0.673648,  1.850833
  0.673648,  1.850833
  0.673648,  1.850833
  1.439693,  2.493621
  1.439693,  2.493621
  1.939693,  3.359646
  1.939693,  3.359646
  2.113341,  4.344454
  2.113341,  4.344454
  1.939693,  5.329262
  1.939693,  5.329262
  1.939693,  5.329262
  2.439692,  6.195287
  2.439692,  6.195287
  2.613341,  7.180095
  2.613341,  7.180095
  2.613341,  7.180095
  3.379385,  7.822882
  3.379385,  7.822882
  3.879385,  8.688908
  3.879385,  8.688908
  3.879385,  8.688908
  4.819078,  9.030928
  4.819078,  9.030928
  5.585122,  9.673716
  5.585122,  9.673716
  6.085122, 10.539742
  6.085122, 10.539742
  6.258770, 11.524550
  6.258770, 11.524550
  6.258770, 11.524550
  7.024815, 12.167337
  7.024815, 12.167337
  7.524815, 13.033363
  7.524815, 13.033363
  7.698463, 14.018171
  7.698463, 14.018171
  7.524815, 15.002979
  7.524815, 15.002979
  7.524815, 15.002979
  8.024815, 15.869005
  8.024815, 15.869005
  8.198462, 16.853813
  8.198462, 16.853813
  8.024815, 17.838621
  8.024815, 17.838621
  7.524815, 18.704647
  7.524815, 18.704647
  7.524815, 18.704647
  7.698463, 19.689455
  7.698463, 19.689455
  7.524815, 20.674263
  7.524815, 20.674263
  7.524815, 20.674263
  8.024815, 21.540289
  8.024815, 21.540289
  8.198462, 22.525097
  8.198462, 22.525097
  8.198462, 22.525097
  8.964507, 23.167885
  8.964507, 23.167885
  9.464507, 24.033910
  9.464507, 24.033910
  9.638155, 25.018719
  9.638155, 25.018719
  9.464507, 26.003527
  9.464507, 26.003527
  9.464507, 26.003527
  9.964507, 26.869553
  9.964507, 26.869553
 10.138155, 27.854360
 10.138155, 27.854360
 10.138155, 27.854360
 10.904200, 28.497149
 10.904200, 28.497149
 11.404200, 29.363174
 11.404200, 29.363174
 11.404200, 29.363174
 12.343892, 29.705194
 12.343892, 29.705194
 13.109937, 30.347982
 13.109937, 30.347982
 13.609937, 31.214008
 13.609937, 31.214008
 13.783585, 32.198814
 13.783585, 32.198814
 13.783585, 32.198814
 14.549629, 32.841602
 14.549629, 32.841602
 15.049629, 33.707626
 15.049629, 33.707626
 15.049629, 33.707626
 15.989322, 34.049650
 15.989322, 34.049650
 16.755365, 34.692436
 16.755365, 34.692436
 16.755365, 34.692436
 17.755365, 34.692436
 17.755365, 34.692436
 18.695059, 35.034460
 18.695059, 35.034460
 19.461103, 35.677246
 19.461103, 35.677246
 19.961103, 36.543270
 19.961103, 36.543270
 19.961103, 36.543270
 20.900797, 36.885292
 20.900797, 36.885292
 21.666842, 37.528080
 21.666842, 37.528080
 22.166842, 38.394104
 22.166842, 38.394104
 22.340490, 39.378910
 22.340490, 39.378910
 22.340490, 39.378910
 23.106535, 40.021698
 23.106535, 40.021698
 23.606535, 40.887722
 23.606535, 40.887722
 23.780184, 41.872528
 23.780184, 41.872528
 23.606535, 42.857334
 23.606535, 42.857334
 23.606535, 42.857334
 24.106535, 43.723360
 24.106535, 43.723360
 24.280184, 44.708164
 24.280184, 44.708164
 24.280184, 44.708164
 25.046228, 45.350952
 25.046228, 45.350952
 25.546228, 46.216976
 25.546228, 46.216976
 25.546228, 46.216976
 26.485922, 46.559000
 26.485922, 46.559000
 27.251966, 47.201786
 27.251966, 47.201786
 27.751966, 48.067810
 27.751966, 48.067810
 27.925615, 49.052616
 27.925615, 49.052616
 27.925615, 49.052616
 28.691660, 49.695404
 28.691660, 49.695404
 29.191660, 50.561428
 29.191660, 50.561428
 29.191660, 50.561428
 30.131353, 50.903450
 30.131353, 50.903450
 30.897398, 51.546238
 30.897398, 51.546238
 30.897398, 51.546238
 31.897398, 51.546238
 31.897398, 51.546238
 32.837090, 51.888260
 32.837090, 51.888260
 33.603134, 52.531048
 33.603134, 52.531048
 34.103134, 53.397070
 34.103134, 53.397070
 34.103134, 53.397070
 35.042828, 53.739094
 35.042828, 53.739094
 35.808872, 54.381880
 35.808872, 54.381880
 35.808872, 54.381880
 36.808872, 54.381880
 36.808872, 54.381880
 37.748566, 54.723904
 37.748566, 54.723904
 37.748566, 54.723904
 38.688260, 54.381880
 38.688260, 54.381880
 39.688260, 54.381880
 39.688260, 54.381880
 40.627953, 54.723904
 40.627953, 54.723904
 41.393997, 55.366690
 41.393997, 55.366690
 41.393997, 55.366690
 42.393997, 55.366690
 42.393997, 55.366690
 43.333690, 55.708714
 43.333690, 55.708714
 44.099735, 56.351500
 44.099735, 56.351500
 44.599735, 57.217525
 44.599735, 57.217525
 44.599735, 57.217525
 45.539430, 57.559547
 45.539430, 57.559547
 46.305473, 58.202335
 46.305473, 58.202335
 46.805473, 59.068360
 46.805473, 59.068360
 46.979122, 60.053165
 46.979122, 60.053165
 46.979122, 60.053165
 47.745167, 60.695953
 47.745167, 60.695953
 48.245167, 61.561977
 48.245167, 61.561977
 48.245167, 61.561977
 49.184860, 61.904000
 49.184860, 61.904000
 49.950905, 62.546787
 49.950905, 62.546787
 49.950905, 62.546787
 50.950905, 62.546787
 50.950905, 62.546787
 51.890600, 62.888810
 51.890600, 62.888810
 52.656643, 63.531597
 52.656643, 63.531597
 53.156643, 64.397620
 53.156643, 64.397620
 53.156643, 64.397620
 54.096336, 64.739640
 54.096336, 64.739640
 54.862380, 65.382420
 54.862380, 65.382420
 54.862380, 65.382420
 55.862380, 65.382420
 55.862380, 65.382420
 56.802074, 65.724440
 56.802074, 65.724440
 56.802074, 65.724440
 57.741768, 65.382420
 57.741768, 65.382420
 58.741768, 65.382420
 58.741768, 65.382420
 59.681460, 65.724440
 59.681460, 65.724440
 60.447506, 66.367226
 60.447506, 66.367226
 60.447506, 66.367226
 61.447506, 66.367226
 61.447506, 66.367226
 62.387200, 66.709240
 62.387200, 66.709240
 62.387200, 66.709240
 63.326893, 66.367226
 63.326893, 66.367226
 64.326890, 66.367226
 64.326890, 66.367226
 64.326890, 66.367226
 65.092930, 65.724440
 65.092930, 65.724440
 66.032620, 65.382420
 66.032620, 65.382420
 67.032620, 65.382420
 67.032620, 65.382420
 67.972310, 65.724440
 67.972310, 65.724440
 67.972310, 65.724440
 68.912000, 65.382420
 68.912000, 65.382420
 69.912000, 65.382420
 69.912000, 65.382420
 70.851690, 65.724440
 70.851690, 65.724440
 71.617740, 66.367226
 71.617740, 66.367226
 71.617740, 66.367226
 72.617740, 66.367226
 72.617740, 66.367226
 73.557430, 66.709240
 73.557430, 66.709240
 74.323470, 67.352030
 74.323470, 67.352030
 74.823470, 68.218056
 74.823470, 68.218056
 74.823470, 68.218056
 75.763160, 68.560074
 75.763160, 68.560074
 76.529205, 69.202860
 76.529205, 69.202860
 76.529205, 69.202860
 77.529205, 69.202860
 77.529205, 69.202860
 78.468895, 69.544876
 78.468895, 69.544876
 78.468895, 69.544876
 79.408585, 69.202860
 79.408585, 69.202860
 80.408585, 69.202860
 80.408585, 69.202860
 81.348274, 69.544876
 81.348274, 69.544876
 82.114320, 70.187660
 82.114320, 70.187660
 82.114320, 70.187660
 83.114320, 70.187660
 83.114320, 70.187660
 84.054010, 70.529680
 84.054010, 70.529680
 84.054010, 70.529680
 84.993700, 70.187660
 84.993700, 70.187660
 85.993700, 70.187660
 85.993700, 70.187660
 85.993700, 70.187660
 86.759740, 69.544876
 86.759740, 69.544876
 87.699430, 69.202860
 87.699430, 69.202860
 88.699430, 69.202860
 88.699430, 69.202860
 89.639120, 69.544876
 89.639120, 69.544876
 89.639120, 69.544876
 90.578810, 69.202860
 90.578810, 69.202860
 91.578810, 69.202860
 91.578810, 69.202860
 91.578810, 69.202860
 92.344860, 68.560074
 92.344860, 68.560074
 93.284546, 68.218056
 93.284546, 68.218056
 93.284546, 68.218056
 93.784546, 67.352030
 93.784546, 67.352030
 94.550590, 66.709240
 94.550590, 66.709240
 95.490280, 66.367226
 95.490280, 66.367226
 96.490280, 66.367226
 96.490280, 66.367226
 96.490280, 66.367226
 97.256325, 65.724440
 97.256325, 65.724440
 98.196014, 65.382420
 98.196014, 65.382420
 99.196014, 65.382420
 99.196014, 65.382420
100.135704, 65.724440
100.135704, 65.724440
100.135704, 65.724440
101.075390, 65.382420
101.075390, 65.382420
102.075390, 65.382420
102.075390, 65.382420
103.015080, 65.724440
103.015080, 65.724440
103.781130, 66.367226
103.781130, 66.367226
103.781130, 66.367226
104.781130, 66.367226
104.781130, 66.367226
105.720820, 66.709240
105.720820, 66.709240
105.720820, 66.709240
106.660510, 66.367226
106.660510, 66.367226
107.660510, 66.367226
107.660510, 66.367226
107.660510, 66.367226
108.426550, 65.724440
108.426550, 65.724440
109.366240, 65.382420
109.366240, 65.382420
110.366240, 65.382420
110.366240, 65.382420
111.305930, 65.724440
111.305930, 65.724440
111.305930, 65.724440
112.245620, 65.382420
112.245620, 65.382420
113.245620, 65.382420
113.245620, 65.382420
113.245620, 65.382420
114.011665, 64.739640
114.011665, 64.739640
114.951355, 64.397620
114.951355, 64.397620
114.951355, 64.397620
115.451355, 63.531597
115.451355, 63.531597
116.217400, 62.888810
116.217400, 62.888810
117.157090, 62.546787
117.157090, 62.546787
118.157090, 62.546787
118.157090, 62.546787
118.157090, 62.546787
118.923134, 61.904000
118.923134, 61.904000
119.862820, 61.561977
119.862820, 61.561977
119.862820, 61.561977
120.362820, 60.695953
120.362820, 60.695953
121.128870, 60.053165
121.128870, 60.053165
121.128870, 60.053165
121.302510, 59.068360
121.302510, 59.068360
121.802510, 58.202335
121.802510, 58.202335
122.568560, 57.559547
122.568560, 57.559547
123.508250, 57.217525
123.508250, 57.217525
123.508250, 57.217525
124.008250, 56.351500
124.008250, 56.351500
124.774290, 55.708714
124.774290, 55.708714
125.713980, 55.366690
125.713980, 55.366690
126.713980, 55.366690
126.713980, 55.366690
126.713980, 55.366690
127.480030, 54.723904
127.480030, 54.723904
128.419720, 54.381880
128.419720, 54.381880
129.419720, 54.381880
129.419720, 54.381880
130.359420, 54.723904
130.359420, 54.723904
130.359420, 54.723904
131.299120, 54.381880
131.299120, 54.381880
132.299120, 54.381880
132.299120, 54.381880
132.299120, 54.381880
133.065160, 53.739094
133.065160, 53.739094
134.004850, 53.397070
134.004850, 53.397070
134.004850, 53.397070
134.504850, 52.531048
134.504850, 52.531048
135.270890, 51.888260
135.270890, 51.888260
136.210590, 51.546238
136.210590, 51.546238
137.210590, 51.546238
137.210590, 51.546238
137.210590, 51.546238
137.976620, 50.903450
137.976620, 50.903450
138.916320, 50.561428
 "
/>
</svg>
